<?xml version="1.0" encoding="utf-8"?>
<!-- Generator: Adobe Illustrator 23.0.4, SVG Export Plug-In . SVG Version: 6.00 Build 0)  -->
<svg version="1.1" id="Layer_1" xmlns="http://www.w3.org/2000/svg" xmlns:xlink="http://www.w3.org/1999/xlink" x="0px" y="0px"
	 viewBox="0 0 35 14" style="enable-background:new 0 0 35 14;" xml:space="preserve">
<style type="text/css">
	.st0{fill:#FFFFFF;}
</style>
<g>
	<path class="st0" d="M3.58,1.25H1.66v9.58h2.25c1.18,0,2-0.35,2.47-1.04c0.47-0.69,0.7-1.96,0.7-3.79c0-1.8-0.23-3.04-0.7-3.72
		S4.98,1.25,3.58,1.25z M4.84,9.31c-0.17,0.32-0.47,0.48-0.9,0.48H3.59V2.3h0.34c0.44,0,0.74,0.27,0.91,0.81
		C5.01,3.65,5.1,4.65,5.1,6.09C5.09,7.91,5.01,8.98,4.84,9.31z"/>
	<rect x="7.45" y="1.25" class="st0" width="1.81" height="1.67"/>
	<rect x="7.45" y="3.49" class="st0" width="1.81" height="7.34"/>
	<path class="st0" d="M12.29,6.68c-0.57-0.5-0.92-0.85-1.03-1.04c-0.11-0.19-0.17-0.38-0.17-0.58c0-0.17,0.05-0.29,0.15-0.39
		c0.1-0.09,0.22-0.13,0.36-0.13c0.18,0,0.31,0.07,0.41,0.2c0.1,0.13,0.15,0.32,0.15,0.53h1.44c0-0.6-0.18-1.07-0.52-1.4
		c-0.34-0.33-0.84-0.49-1.49-0.49c-0.61,0-1.1,0.16-1.47,0.48C9.75,4.19,9.56,4.62,9.56,5.16c0,0.52,0.08,0.95,0.22,1.3
		c0.15,0.35,0.5,0.76,1.05,1.25c0.43,0.37,0.75,0.67,0.94,0.87c0.19,0.2,0.29,0.39,0.29,0.57c0,0.19-0.04,0.33-0.13,0.43
		c-0.09,0.1-0.22,0.14-0.41,0.14c-0.19,0-0.33-0.06-0.43-0.18c-0.1-0.12-0.15-0.32-0.15-0.58H9.48c0,0.64,0.18,1.14,0.53,1.46
		c0.35,0.32,0.87,0.48,1.56,0.48c0.64,0,1.15-0.18,1.52-0.52c0.37-0.34,0.55-0.83,0.55-1.45c0-0.4-0.1-0.76-0.29-1.09
		C13.16,7.51,12.81,7.13,12.29,6.68z"/>
	<path class="st0" d="M33.38,7.84c-0.2-0.32-0.55-0.71-1.05-1.15c-0.57-0.5-0.92-0.85-1.03-1.04c-0.11-0.19-0.17-0.38-0.17-0.58
		c0-0.17,0.05-0.29,0.15-0.39c0.1-0.09,0.22-0.13,0.36-0.13c0.18,0,0.31,0.07,0.41,0.2c0.1,0.13,0.15,0.32,0.15,0.53h1.44
		c0-0.6-0.18-1.07-0.52-1.4c-0.34-0.33-0.84-0.49-1.49-0.49c-0.61,0-1.1,0.16-1.47,0.48C29.79,4.2,29.6,4.62,29.6,5.16
		c0,0.52,0.08,0.95,0.22,1.3c0.15,0.35,0.5,0.76,1.05,1.25c0.43,0.37,0.75,0.67,0.94,0.87C32,8.79,32.1,8.98,32.1,9.15
		c0,0.19-0.04,0.33-0.14,0.43c-0.09,0.1-0.22,0.14-0.41,0.14c-0.19,0-0.33-0.06-0.43-0.18c-0.1-0.12-0.15-0.32-0.15-0.58h-1.46
		c0,0.64,0.18,1.14,0.53,1.46c0.35,0.32,0.87,0.48,1.56,0.48c0.64,0,1.15-0.18,1.52-0.52c0.37-0.34,0.55-0.83,0.55-1.45
		C33.67,8.52,33.57,8.16,33.38,7.84z"/>
	<path class="st0" d="M16.75,9c-0.03,0.32-0.08,0.52-0.15,0.62c-0.08,0.1-0.2,0.14-0.36,0.14c-0.26,0-0.43-0.15-0.5-0.46
		c-0.08-0.3-0.11-1.02-0.11-2.17c0-0.99,0.04-1.67,0.1-2.05c0.06-0.38,0.23-0.57,0.49-0.57c0.15,0,0.27,0.06,0.33,0.2
		c0.06,0.13,0.1,0.42,0.1,0.87h0.79c0.18-0.36,0.39-0.7,0.67-1c-0.08-0.26-0.22-0.48-0.39-0.66c-0.35-0.36-0.85-0.55-1.51-0.55
		c-0.82,0-1.44,0.32-1.84,0.95c-0.41,0.63-0.61,1.56-0.61,2.8c0,1.25,0.2,2.19,0.59,2.81c0.39,0.63,0.97,0.95,1.73,0.95
		c0.67,0,1.18-0.15,1.51-0.46c0.17-0.15,0.29-0.34,0.37-0.58C17.75,9.59,17.58,9.31,17.43,9H16.75z"/>
	<path class="st0" d="M27.43,3.66c-0.16-0.1-0.32-0.17-0.48-0.21c-0.16-0.04-0.35-0.06-0.57-0.06c-0.44,0-0.81,0.13-1.11,0.41
		c-0.31,0.27-0.53,0.65-0.66,1.13c-0.02,0.08-0.05,0.18-0.07,0.3c0.38,0.61,0.59,1.32,0.6,2.08c0,0.71-0.18,1.38-0.51,1.96
		c0.11,0.41,0.27,0.73,0.48,0.95c0.29,0.29,0.69,0.44,1.2,0.44c0.3,0,0.57-0.04,0.79-0.12c0.22-0.08,0.38-0.18,0.46-0.31
		c0.01,0.07,0.01,0.14,0.01,0.2c0.01,0.06,0.01,0.11,0.01,0.16c0,0.39-0.08,0.67-0.26,0.87s-0.44,0.3-0.81,0.3
		c-0.24,0-0.5-0.03-0.79-0.08c-0.29-0.06-0.53-0.12-0.71-0.2l-0.22,1c0.27,0.13,0.57,0.22,0.91,0.28c0.34,0.06,0.67,0.09,0.99,0.09
		c0.78,0,1.4-0.2,1.86-0.59c0.46-0.39,0.69-0.95,0.69-1.66V3.49h-1.8V3.66z M27.44,9.47c-0.08,0.06-0.15,0.11-0.23,0.13
		c-0.08,0.03-0.18,0.04-0.31,0.04c-0.17,0-0.29-0.05-0.39-0.15c-0.09-0.1-0.15-0.26-0.17-0.48c-0.02-0.23-0.04-0.53-0.06-0.88
		c-0.01-0.35-0.02-0.72-0.02-1.11c0-0.25,0.01-0.53,0.02-0.86c0.01-0.32,0.04-0.62,0.06-0.9c0.03-0.27,0.08-0.46,0.18-0.55
		c0.1-0.1,0.25-0.15,0.44-0.15c0.07,0,0.15,0.01,0.25,0.03c0.09,0.02,0.17,0.05,0.22,0.08V9.47z"/>
	<path class="st0" d="M32.75,3.33c0.04,0.04,0.1,0.07,0.15,0.09c0.06,0.02,0.12,0.04,0.18,0.04c0.06,0,0.13-0.01,0.18-0.04
		c0.06-0.02,0.11-0.05,0.15-0.09c0.04-0.04,0.08-0.09,0.11-0.15c0.03-0.06,0.04-0.13,0.04-0.2c0-0.07-0.01-0.14-0.04-0.2
		c-0.03-0.06-0.06-0.11-0.11-0.15c-0.04-0.04-0.1-0.08-0.15-0.1c-0.06-0.02-0.12-0.04-0.18-0.04c-0.06,0-0.13,0.01-0.18,0.04
		c-0.06,0.03-0.11,0.06-0.15,0.1c-0.04,0.04-0.08,0.09-0.11,0.15c-0.02,0.06-0.04,0.12-0.04,0.2c0,0.07,0.01,0.14,0.04,0.2
		C32.67,3.24,32.71,3.29,32.75,3.33z M32.76,2.84c0.02-0.05,0.04-0.08,0.08-0.12c0.03-0.04,0.07-0.06,0.11-0.08
		c0.04-0.02,0.09-0.03,0.14-0.03s0.1,0.01,0.14,0.03c0.04,0.02,0.08,0.04,0.11,0.08c0.04,0.04,0.06,0.08,0.08,0.12
		c0.02,0.04,0.03,0.1,0.03,0.15c0,0.05-0.01,0.11-0.03,0.15c-0.02,0.05-0.04,0.08-0.08,0.12c-0.03,0.04-0.07,0.06-0.11,0.08
		c-0.04,0.02-0.09,0.03-0.14,0.03S33,3.35,32.95,3.33c-0.04-0.02-0.08-0.04-0.11-0.08c-0.04-0.04-0.06-0.08-0.08-0.12
		c-0.02-0.05-0.03-0.09-0.03-0.15C32.74,2.93,32.74,2.88,32.76,2.84z"/>
	<path class="st0" d="M33.01,3.03h0.06l0.13,0.22h0.11l-0.14-0.23c0.02-0.01,0.04-0.01,0.06-0.01c0.01-0.01,0.03-0.01,0.04-0.03
		s0.02-0.03,0.03-0.04c0.01-0.02,0.01-0.04,0.01-0.06c0-0.06-0.02-0.1-0.06-0.12c-0.04-0.02-0.09-0.04-0.15-0.04h-0.2v0.53h0.11
		V3.03z M33.01,2.8h0.09c0.01,0,0.02,0,0.04,0c0.01,0,0.03,0,0.04,0.01c0.01,0.01,0.02,0.01,0.03,0.02
		c0.01,0.01,0.01,0.02,0.01,0.04c0,0.04-0.01,0.06-0.03,0.06s-0.05,0.01-0.08,0.01h-0.09V2.8z"/>
	<path class="st0" d="M19.3,9.19l0.41-0.43l0.02-0.02l0.25-0.27l0.01-0.01l0.13-0.15c0,0,0,0,0.01,0.01
		c-0.27-0.25-0.43-0.61-0.43-1.01c0-0.78,0.63-1.41,1.41-1.41c0.26,0,0.5,0.07,0.7,0.19l0.28-0.5l0.01-0.03l0.28-0.52l0.01-0.03
		l0.28-0.52l0.01-0.03l0.15-0.27l0.11-0.2c-0.53-0.3-1.14-0.48-1.79-0.48H21.1c-0.01,0-0.03-0.01-0.04-0.01
		c0.01,0.01,0.03,0.01,0.03,0.01h-0.01c-2.09,0-3.78,1.68-3.8,3.76v0.04c0,1.09,0.46,2.07,1.2,2.76l0.19-0.2l0.19-0.2l0.02-0.02
		l0.4-0.43L19.3,9.19z"/>
	<path class="st0" d="M23.74,4.58l-0.36,0.39L23.36,5l-0.4,0.43l-0.02,0.02l-0.4,0.43l-0.02,0.02l-0.15,0.16l-0.25,0.26
		c0.24,0.25,0.39,0.6,0.39,0.97c0,0.78-0.63,1.41-1.4,1.41c-0.24,0-0.46-0.06-0.65-0.16l-0.28,0.5l-0.4,0.71l-0.21,0.37l-0.01,0.03
		l-0.27,0.48c0.54,0.29,1.16,0.47,1.82,0.47c2.1,0,3.8-1.7,3.8-3.8C24.89,6.24,24.45,5.28,23.74,4.58z"/>
	<circle class="st0" cx="21.1" cy="7.3" r="0.27"/>
</g>
</svg>
