<?xml version="1.0" encoding="utf-8"?>
<!-- Generator: Adobe Illustrator 23.0.4, SVG Export Plug-In . SVG Version: 6.00 Build 0)  -->
<svg version="1.1" xmlns="http://www.w3.org/2000/svg" xmlns:xlink="http://www.w3.org/1999/xlink" x="0px" y="0px"
	 viewBox="0 0 26 14" style="enable-background:new 0 0 26 14;" xml:space="preserve">
<style type="text/css">
	.st0{fill:#FFFFFF;}
</style>
<g id="Layer_1">
	<g>
		<path class="st0" d="M25.1,9.87c0-0.23-0.11-0.44-0.26-0.6l-6.83-6.83l-2.06,2.06l5.38,5.38H13.7c-0.37-0.01-0.67-0.14-0.92-0.38
			L9.36,6.09C9.01,5.75,8.52,5.54,8,5.54c0,0,0,0-0.01,0v0H3.82V4.11h4.32v0c0.86,0,1.62,0.35,2.18,0.91l2.55,2.55l2.06-2.06
			l-2.6-2.6C11.25,1.85,9.78,1.2,8.13,1.2c0,0,0,0-0.01,0v0H0.9v7.26h6.12v0c0.4,0,0.76,0.17,1.02,0.43l3.35,3.35
			c0.34,0.33,0.8,0.55,1.31,0.56h9.25c0.39-0.01,0.74-0.16,1-0.42l1.89-1.89l0,0C25,10.33,25.1,10.12,25.1,9.87z"/>
		<path class="st0" d="M19.6,2.9c0.47,0,0.84-0.39,0.84-0.85v0c0-0.46-0.37-0.84-0.84-0.84c-0.47,0-0.84,0.39-0.84,0.85v0
			C18.75,2.51,19.12,2.9,19.6,2.9z M18.85,2.05c0-0.41,0.33-0.76,0.75-0.76c0.43,0,0.75,0.34,0.75,0.75v0
			c0,0.41-0.33,0.76-0.75,0.76C19.17,2.8,18.85,2.46,18.85,2.05L18.85,2.05z"/>
		<path class="st0" d="M19.43,2.11h0.22c0.14,0,0.17,0.07,0.17,0.23c0,0.04,0,0.09,0.02,0.13h0.16c-0.03-0.03-0.05-0.13-0.05-0.23
			c0-0.14-0.08-0.17-0.13-0.18v0c0.03-0.01,0.14-0.05,0.14-0.22c0-0.15-0.1-0.23-0.28-0.23h-0.41v0.86h0.15V2.11z M19.43,1.73h0.24
			c0.08,0,0.15,0.02,0.15,0.13c0,0.09-0.05,0.14-0.15,0.14h-0.25V1.73z"/>
	</g>
</g>
<g id="Layer_2">
</g>
</svg>
