<svg id="Layer_1" data-name="Layer 1" xmlns="http://www.w3.org/2000/svg" viewBox="0 0 935.24 448.45"><title>resident-advisor-seeklogo.com</title><path d="M1033.9,527.82a32.63,32.63,0,0,0,10.24-23.69c0-9-4.28-17.08-10.14-23L769.93,217.07l-79.7,79.7,207.9,207.9H603.58c-14.4-.43-25.81-5.26-35.46-14.62L436,357.88a77.16,77.16,0,0,0-52.84-21.16H221.61V281.57H388.67A118.35,118.35,0,0,1,473,316.89l98.58,98.58,79.7-79.7-100.5-100.5a229.35,229.35,0,0,0-162.35-66.41H108.89V449.44H345.27v0a55.54,55.54,0,0,1,39.28,16.59L514,595.49a76.08,76.08,0,0,0,50.68,21.81H922.24a55.45,55.45,0,0,0,38.57-16.25L1034,527.91Z" transform="translate(-108.89 -168.86)"/><path d="M831.46,168.86a32.84,32.84,0,0,0-32.65,32.82v.18a32.65,32.65,0,1,0,65.29-.18v-.18a32.53,32.53,0,0,0-32.64-32.64m28.89,32.82a28.89,28.89,0,1,1-57.77.18v-.18a28.89,28.89,0,1,1,57.77-.18Z" transform="translate(-108.89 -168.86)"/><path d="M819.34,184.78h15.85c7.26,0,11,3.35,11,9,0,6.36-4.42,8-5.49,8.36v.09c2,.29,4.93,1.77,4.93,7,0,3.86.56,7.39,1.81,8.74h-6.23a9.28,9.28,0,0,1-.88-4.88c0-6.09-1.26-8.79-6.61-8.79h-8.55V218h-5.81Zm5.81,15.11h9.54c3.67,0,5.67-1.82,5.67-5.3,0-4.23-2.75-5.07-5.76-5.07h-9.45Z" transform="translate(-108.89 -168.86)"/></svg>