<?xml version="1.0" encoding="utf-8"?>
<!-- Generator: Adobe Illustrator 23.0.4, SVG Export Plug-In . SVG Version: 6.00 Build 0)  -->
<svg version="1.1" id="Layer_1" xmlns="http://www.w3.org/2000/svg" xmlns:xlink="http://www.w3.org/1999/xlink" x="0px" y="0px"
	 viewBox="0 0 35 14" style="enable-background:new 0 0 35 14;" xml:space="preserve">
<style type="text/css">
	.st0{fill:#CDCFD0;}
	.st1{fill:#D7CBA7;}
	.st2{fill:#CE2527;}
	.st3{fill:#2A2527;}
</style>
<rect x="8" y="11.5" transform="matrix(0.7595 -0.6505 0.6505 0.7595 -5.6801 8.6297)" class="st0" width="1.65" height="0.99"/>
<polygon class="st1" points="4.89,5.45 3.88,6.23 0.94,2.11 0.14,0.71 0.63,0.21 1.98,1.42 "/>
<rect x="5.21" y="5.45" transform="matrix(0.8118 -0.5839 0.5839 0.8118 -3.8881 5.4412)" class="st2" width="2.57" height="6.61"/>
<g id="XMLID_74_">
	<g id="XMLID_33_">
		<g id="XMLID_28_">
			<path id="XMLID_257_" class="st3" d="M2.33,1.32L5.3,5.38c0.07,0.1,0.05,0.25-0.05,0.32L4.02,6.6C3.92,6.67,3.77,6.65,3.7,6.55
				L0.73,2.49c-0.13-0.17-0.16-0.4-0.1-0.6c0.02-0.07,0.01-0.14-0.02-0.19L0.48,1.53L0.41,1.52c-0.23-0.04-0.4-0.25-0.4-0.48L0,0.52
				C0,0.35,0.08,0.2,0.21,0.1s0.31-0.13,0.47-0.07l0.49,0.16c0.22,0.07,0.36,0.3,0.34,0.53C1.5,0.76,1.51,0.81,1.54,0.85l0.09,0.12
				c0.04,0.05,0.1,0.08,0.17,0.08C2,1.05,2.21,1.15,2.33,1.32z M4.79,5.46L1.96,1.59C1.92,1.54,1.86,1.5,1.78,1.5
				c-0.22,0-0.41-0.1-0.53-0.27L1.17,1.12c-0.1-0.13-0.14-0.29-0.12-0.46c0-0.02-0.01-0.03-0.02-0.04L0.53,0.46
				c-0.02-0.01-0.04,0-0.05,0.01C0.47,0.48,0.46,0.49,0.46,0.51l0.01,0.52c0,0.02,0.01,0.03,0.03,0.04L0.65,1.1
				C0.71,1.11,0.76,1.14,0.8,1.19l0.18,0.25C1.1,1.6,1.13,1.82,1.07,2.02C1.05,2.09,1.06,2.17,1.1,2.22l2.83,3.87L4.79,5.46z"/>
		</g>
		<g id="XMLID_31_">
			<path id="XMLID_254_" class="st3" d="M6.06,5.22l3.38,4.63c0.15,0.21,0.24,0.47,0.23,0.73l-0.01,0.38c0,0.07-0.04,0.14-0.09,0.18
				L7.9,12.37c-0.06,0.04-0.13,0.06-0.2,0.03l-0.36-0.11c-0.25-0.08-0.47-0.23-0.62-0.44L3.32,7.22C3.14,6.98,3.2,6.63,3.44,6.45
				L5.28,5.1C5.53,4.92,5.88,4.98,6.06,5.22z M9.21,10.84l0-0.27c0-0.16-0.05-0.32-0.14-0.45L5.69,5.49
				C5.66,5.45,5.6,5.44,5.55,5.47L3.71,6.82C3.67,6.85,3.66,6.91,3.69,6.95l3.38,4.63c0.1,0.13,0.23,0.23,0.39,0.27l0,0l0.25,0.08
				L9.21,10.84z"/>
		</g>
		<g id="XMLID_18_">
			
				<rect id="XMLID_253_" x="6.61" y="10.72" transform="matrix(0.8071 -0.5904 0.5904 0.8071 -4.848 6.8587)" class="st3" width="2.93" height="0.26"/>
		</g>
		<g id="XMLID_30_">
			
				<rect id="XMLID_252_" x="6.22" y="10.18" transform="matrix(0.8071 -0.5904 0.5904 0.8071 -4.6071 6.5238)" class="st3" width="2.93" height="0.26"/>
		</g>
		<g id="XMLID_32_">
			
				<rect id="XMLID_251_" x="5.82" y="9.65" transform="matrix(0.8071 -0.5904 0.5904 0.8071 -4.3663 6.189)" class="st3" width="2.93" height="0.26"/>
		</g>
		<g id="XMLID_16_">
			<path id="XMLID_248_" class="st3" d="M9.52,10.9l0.6,0.82c0.07,0.1,0.05,0.25-0.05,0.32l-1.52,1.11
				c-0.1,0.07-0.25,0.05-0.32-0.05l-0.6-0.82c-0.07-0.1-0.05-0.25,0.05-0.32l1.52-1.11C9.3,10.77,9.44,10.79,9.52,10.9z M9.61,11.8
				l-0.33-0.45l-1.15,0.84l0.33,0.45L9.61,11.8z"/>
		</g>
	</g>
	<g id="XMLID_75_">
		
			<rect id="XMLID_247_" x="1.36" y="2.56" transform="matrix(0.8071 -0.5904 0.5904 0.8071 -1.1717 1.8023)" class="st3" width="1.62" height="0.26"/>
	</g>
	<g id="XMLID_76_">
		
			<rect id="XMLID_246_" x="2.58" y="4.24" transform="matrix(0.8071 -0.5904 0.5904 0.8071 -1.9235 2.8475)" class="st3" width="1.62" height="0.26"/>
	</g>
</g>
</svg>
