<?xml version="1.0" encoding="utf-8"?>
<!-- Generator: Adobe Illustrator 23.0.4, SVG Export Plug-In . SVG Version: 6.00 Build 0)  -->
<svg version="1.1" id="Layer_1" xmlns="http://www.w3.org/2000/svg" xmlns:xlink="http://www.w3.org/1999/xlink" x="0px" y="0px"
	 viewBox="0 0 300 300" style="enable-background:new 0 0 300 300;" xml:space="preserve">
<g>
	<path d="M288.86,216.84c-7.82-14.29-18.46-27.45-30.24-38.74c0.16,0.01,0.33,0.03,0.5,0.03c3.5,0.04,7.43-3.26,7.04-7.04
		c-3.21-30.54-4.77-63.13,0.97-93.41c1.68-8.85-11.88-12.64-13.57-3.74c-3.23,17.06-4.37,34.71-4.22,52.36
		c-3.42-4.51-7.39-8.52-12.01-11.75c-13.24-9.28-33.68-9.38-48.27-3.29c-7.42,3.1-15.46,10.88-13.04,19.83
		c0.75,2.77,3.31,5.06,5.26,7.08c5.52,5.7,11.56,10.87,17.85,15.71c15.17,11.68,32.99,18.84,47.11,31.9
		c12.69,11.74,24.16,25.57,31.98,41.06c2.66,5.28,5.17,11.18,5.28,17.18c0.04,2.09-0.33,3.52-1.19,4.86
		c-0.11,0.17-0.22,0.32-0.9,1.09c-0.38,0.43-1.01,0.89-1.32,1.34c-1.5-1.76-5.74-4.29-6.98-5.37c-2.47-2.13-4.9-4.29-7.31-6.49
		c-4.73-4.32-9.34-8.77-13.86-13.31c-8.58-8.64-16.81-17.63-24.74-26.88c-7.55-8.81-14.98-17.81-21.77-27.24
		c-4.9-6.81-15.73-1.4-12.8,5.82c-0.46,0.08-0.92,0.17-1.38,0.26c-6.16-14.46-13.57-28.46-22.2-41.34
		c-3.77-5.62-13.11-3.74-13.11,3.55c0,13.5,0,26.99,0,40.49c-2.96,2.64-6.31,5.8-9.52,9.31c-1.66-23.38-5.2-46.91-11.92-69.03
		c-2.62-8.64-16.21-4.96-13.57,3.74c6.06,19.94,9.41,40.98,11.13,62.01c-2.5-6.26-5.09-12.49-7.75-18.68
		c-3.4-7.9-6.9-15.82-11.09-23.34c-2.57-4.61-5.64-10.57-10.97-12.39c-2.38-0.82-4.26,0.07-5.36,1.61
		c-0.79,0.84-1.32,1.98-1.32,3.48c0,14.82,0,29.63,0,44.45c-1.33-3.06-2.69-6.1-4.22-9.07c-7.39-14.42-17.9-27.06-29.18-38.77
		c2.21,0.13,4.42,0.28,6.63,0.51c1.13,0.12,2.26,0.23,3.38,0.44c2.01,0.38,3.68,1.85,0.56-0.59c5.79,4.53,15.69-1.17,11.05-8.53
		C66.42,98.4,55.47,63.76,56.95,31.19c0.19-4.27-2.83-6.52-6.13-6.76c-3.25-0.66-6.77,0.7-7.7,4.89
		C34.79,66.96,30.5,105.8,26.26,144.06c-0.41,3.69-0.79,7.38-1.18,11.07c-3.89-16.11-7.79-32.21-11.68-48.32
		c-1.6-6.6-11.78-3.8-10.18,2.81c6.23,25.79,12.47,51.59,18.7,77.38c-0.98,10.66-1.91,21.32-2.77,31.99
		c-0.31,3.9,3.48,6.89,7.04,7.04c21.79,0.89,43.71,2.62,65.52,2.67c10.62,0.03,17.36-7.88,15.59-18.55
		c-0.27-1.64-0.7-3.25-1.23-4.84c0.02-0.21,0.06-0.41,0.06-0.63c0-2.91,0-5.82,0-8.73c0.37-0.02,0.76-0.07,1.16-0.17
		c5.06-1.27,9.7-4.62,13.52-8.07c0.08-0.07,0.13-0.15,0.19-0.22c2.49,6.17,4.9,12.37,7.22,18.61c0.91,2.46,3.01,3.54,5.1,3.57
		c0.03,1.1,0.07,2.19,0.09,3.29c-0.47,2.91-0.41,5.83,0.38,8.72c2.08,7.6,13.92,6.15,13.82-1.87c-0.02-1.24-0.04-2.48-0.07-3.72
		c0.29-1.33,0.65-2.66,1.15-3.92c1.67-4.21,4.24-8.03,7.23-11.54c0,3.41,0,6.82,0,10.24c0,9.06,14.07,9.07,14.07,0
		c0-2.52,0-5.05,0-7.57c0.44-0.24,0.88-0.53,1.3-0.88c0,0,0,0,0,0c0.27-0.19,1.16-0.86,1.32-0.97c2.03-1.38,4.08-2.7,6.23-3.89
		c1.36-0.75,2.74-1.44,4.15-2.08c1.85,4.98,3.55,10,5.08,15.04c2.63,8.64,16.22,4.96,13.57-3.74c-1.56-5.14-3.29-10.28-5.17-15.39
		c0.95-0.14,1.9-0.26,2.86-0.33c0.33-0.03,0.64-0.08,0.94-0.14c9.48,16.6,17.5,34.14,21.94,52.76c1.76,7.36,3.31,13.81,2.55,21.5
		c-0.89,9.01,13.19,8.95,14.07,0c0.82-8.28-1.15-17.27-3.05-25.24c-1.15-4.83-2.55-9.61-4.13-14.32
		c7.12,7.55,14.47,14.85,22.02,21.86c4.06,3.77,8.19,7.45,12.43,11.01c3.94,3.31,8.04,7.85,13.56,7.79
		c6.33-0.08,12.46-5.84,15.33-11.21C301.49,242.95,294.78,227.67,288.86,216.84z M252.32,172.35c-0.03-0.03-0.06-0.05-0.09-0.08
		c-0.04-0.27-0.09-0.65-0.16-1.18C252.13,171.52,252.22,171.94,252.32,172.35z M189.79,128.66c-0.02-0.09-0.05-0.21-0.09-0.34
		c0-0.01,0.01-0.03,0.01-0.04C189.73,128.41,189.76,128.54,189.79,128.66z M189.6,127.98c0.01-0.02,0.02-0.04,0.04-0.06c0,0,0,0,0,0
		C189.62,127.95,189.61,127.97,189.6,127.98C189.6,127.98,189.6,127.98,189.6,127.98z M237.09,161.06
		c-9.22-5.55-18.7-10.3-27.4-16.73c-6.34-4.68-12.34-9.89-17.86-15.52c-0.49-0.5-1.01-1.16-1.55-1.82c0.04-0.06,0.08-0.11,0.11-0.14
		c-0.16,0.17,0.56-0.74,1.22-1.16c5.52-3.5,13.88-4.09,20.78-4.12c16.31-0.07,26.13,11.06,32.44,25.11
		c2.47,5.5,4.27,11.34,5.7,17.19c0.51,2.11,0.97,4.23,1.36,6.36c0.08,0.42,0.22,1.39,0.32,2.01
		C247.46,168.13,242.44,164.28,237.09,161.06z M64.21,120.13c-0.79-0.04-1.57-0.07-2.33-0.12c-5.79-0.35-11.59-0.54-17.39-0.61
		c-0.53-0.01-1.04,0.07-1.53,0.18c1.64-13.33,3.46-26.62,5.5-39.88C52.18,93.77,57.57,107.47,64.21,120.13z M92.81,214.66
		c0.19-0.01,0.41-0.02,0.7-0.03C93.28,214.64,93.04,214.66,92.81,214.66z M93.79,214.37c-0.03-0.07,0.1,0.23-0.06,0.1
		c0.09,0.07-0.69,0.14-1.2,0.18c-0.65-0.04-1.29-0.05-1.94-0.08c-11.17-0.42-22.34-0.91-33.51-1.37
		c-7.77-0.32-15.54-0.63-23.32-0.95c2.16-26.34,4.57-52.74,7.58-79.06c12.92,12.52,25.73,25.72,34.86,41.32
		c5.3,9.06,8.78,18.94,13.38,28.34c1.65,3.37,3.21,6.58,4,10.28C93.78,214.08,93.99,214.83,93.79,214.37z M113.35,180.23
		c-1.95,1.76-4.48,3.72-7.22,4.81c0-10.36,0-20.73,0-31.09c3.66,7.09,6.9,14.41,10.02,21.75c0.43,1.01,0.85,2.03,1.27,3.04
		C115.98,178.69,114.5,179.2,113.35,180.23z M147.36,217.92c0.01,0,0.01,0,0.02,0c0-0.01-0.01-0.03-0.01-0.05
		c0.01-0.12,0.03-0.25,0.06-0.41C147.84,217.67,147.22,219.25,147.36,217.92z M170.02,186.31c0-0.13,0-0.25,0-0.38
		c0.34-1.09,0.3-2.21,0-3.26c0-5.54,0-11.08,0-16.62c2.78,5.34,5.37,10.78,7.76,16.31C175.11,183.51,172.52,184.83,170.02,186.31z"
		/>
	<path d="M177.04,227.63c-29.18,2.79-58.95,6.44-86.98,15.42c-10.35,3.32-22.01,7.36-30.17,14.91c-1.1,1.01-2.34,2.2-3.03,3.55
		c-2.05,4.03,4.02,7.59,6.08,3.55c0.1-0.2,0.25-0.36,0.36-0.55c-0.55,0.95,0.46-0.52,1.04-1.07c2.18-2.07,4.47-3.56,7.49-5.26
		c14.71-8.27,32.03-12.21,48.4-15.52c18.76-3.79,37.77-6.18,56.82-8C181.51,234.24,181.56,227.2,177.04,227.63z"/>
	<path d="M144.42,250.59c-9.98,1.58-22.34,3.39-30.4,10.19c-2.05,1.73-4.65,4.61-4.34,7.58c0.46,4.46,7.51,4.51,7.04,0
		c0-0.02,0-0.02-0.01-0.03c0.76-1.06,1.42-1.92,2.65-2.82c7.4-5.39,18.19-6.75,26.93-8.14
		C150.75,256.67,148.85,249.89,144.42,250.59z"/>
</g>
</svg>
