<?xml version="1.0" encoding="utf-8"?>
<!-- Generator: Adobe Illustrator 23.0.4, SVG Export Plug-In . SVG Version: 6.00 Build 0)  -->
<svg version="1.1" id="Layer_1" xmlns="http://www.w3.org/2000/svg" xmlns:xlink="http://www.w3.org/1999/xlink" x="0px" y="0px"
	 viewBox="0 0 127 63.23" style="enable-background:new 0 0 127 63.23;" xml:space="preserve">
<style type="text/css">
	.st0{fill:#FFFFFF;}
	.st1{fill:#231F20;}
</style>
<g>
	<path class="st0" d="M15.56,27.66c0.68,0.42,1.41,0.8,1.97,1.17c1.56,1,3.13,1.98,4.71,2.94c-1.58-0.96-3.15-1.94-4.71-2.94
		C16.96,28.46,16.24,28.08,15.56,27.66z"/>
	<path class="st0" d="M29.53,35.98c3.01,1.66,6.06,3.26,9.14,4.77c7.31,3.59,14.84,6.79,22.52,9.59
		c-7.68-2.79-15.21-5.99-22.52-9.59C35.59,39.24,32.54,37.65,29.53,35.98z"/>
	<path class="st0" d="M12.63,23.28c0.14,0.4,0.29,0.8,0.45,1.2c0.13,0.32,0.27,0.71,0.43,1.07c-0.16-0.36-0.3-0.75-0.43-1.07
		C12.91,24.08,12.76,23.68,12.63,23.28z"/>
	<path class="st0" d="M123.53,62.25c-0.07,0.07-0.15,0.14-0.22,0.21c-0.08,0.08-0.18,0.16-0.28,0.23c0.1-0.07,0.2-0.14,0.28-0.22
		C123.38,62.39,123.46,62.32,123.53,62.25l0.2-0.22c0.12-0.15,0.24-0.3,0.34-0.45c-0.11,0.15-0.22,0.3-0.34,0.45L123.53,62.25z"/>
	<path class="st0" d="M11.7,16.85c0.01-0.07,0.01-0.14,0.02-0.2C11.72,16.71,11.71,16.77,11.7,16.85c-0.03,0.4-0.04,0.8-0.04,1.2
		C11.66,17.65,11.67,17.25,11.7,16.85z"/>
	<path class="st0" d="M111.49,59.47c2.47,0.3,4.96,0.58,7.44,0.75c-0.03-0.1-0.06-0.2-0.09-0.3c-0.34-1.29-0.46-2.6-0.49-3.9
		c0-0.35,0-0.69,0.01-1.04l-0.3,0.03l-0.41,0.04l-0.4,0.01l-1.61,0.04c-0.54,0.01-1.06-0.03-1.6-0.05L112.46,55l-1.58-0.17
		c-1.05-0.12-2.11-0.2-3.14-0.4l-3.11-0.53c-1.03-0.22-2.05-0.46-3.07-0.69l-1.53-0.35c-0.25-0.06-0.51-0.11-0.76-0.18l-0.75-0.22
		l-3.01-0.87c-2.02-0.53-3.98-1.27-5.96-1.94c-0.98-0.35-1.98-0.66-2.95-1.03l-2.9-1.16l-2.9-1.16c-0.48-0.19-0.97-0.38-1.45-0.58
		l-1.42-0.64l-5.69-2.57c-0.96-0.41-1.88-0.89-2.81-1.35l-2.79-1.4l-2.79-1.4c-0.93-0.47-1.87-0.92-2.77-1.43l-5.46-3.01
		c-1.81-1.01-3.66-1.97-5.42-3.07l-5.35-3.2l-2.67-1.6c-0.44-0.27-0.89-0.53-1.33-0.8l-1.31-0.84l-10.47-6.75l10.61,6.51L41,24.99
		c0.45,0.26,0.9,0.51,1.35,0.77l2.71,1.54l5.41,3.07c1.79,1.05,3.65,1.97,5.48,2.94l5.51,2.88c0.91,0.5,1.86,0.92,2.79,1.37
		l2.81,1.33l2.81,1.33c0.94,0.44,1.87,0.9,2.83,1.28l5.72,2.42l1.43,0.61c0.48,0.19,0.97,0.36,1.45,0.54l2.91,1.08l2.9,1.08
		c0.97,0.34,1.96,0.63,2.95,0.95c1.97,0.61,3.92,1.3,5.92,1.78l2.99,0.79l0.75,0.2c0.25,0.06,0.5,0.11,0.75,0.16l1.51,0.31
		c1.01,0.2,2.01,0.42,3.02,0.61l3.04,0.44c1.01,0.18,2.03,0.23,3.04,0.32l1.52,0.13l1.52,0.03c0.5,0,1.01,0.04,1.51,0.01l1.5-0.07
		l0.37-0.02l0.37-0.04l0.73-0.09c0.04-0.21,0.08-0.41,0.12-0.62c0.02-0.1,0.05-0.19,0.07-0.29c-10.03,0.47-20.05-2.23-29.34-5.81
		C71.28,39,54.58,28.21,38.98,16.67c-4.55-3.37-9-6.87-13.43-10.38c-0.9-0.71-1.54-1.56-2.74-1.21c-0.76,0.22-1.52,0.53-2.26,0.9
		c0.43-0.07,0.87-0.1,1.32-0.06c0.5,0.04,1.01,0.18,1.46,0.44c0.45,0.25,0.83,0.62,1.11,1.02c0.28,0.41,0.48,0.85,0.62,1.3
		c0.27,0.9,0.34,1.82,0.29,2.72c-0.03,0.45-0.06,0.89-0.17,1.34c-0.08,0.45-0.23,0.88-0.42,1.3c-0.39,0.83-1.06,1.52-1.87,1.9
		c-0.81,0.37-1.71,0.52-2.58,0.43c0.87,0.02,1.74-0.2,2.49-0.61c0.74-0.43,1.3-1.1,1.6-1.88c0.14-0.39,0.25-0.8,0.29-1.22
		c0.07-0.41,0.06-0.85,0.06-1.27c-0.02-0.85-0.16-1.69-0.45-2.44C24,8.19,23.5,7.55,22.85,7.25c-0.65-0.31-1.43-0.27-2.19-0.07
		c-0.76,0.21-1.5,0.58-2.21,1.02c-0.71,0.44-1.38,0.94-2.04,1.47l-0.54-0.71c-0.52,0.37-1.02,0.74-1.51,1.09
		c-0.02,0.01-0.04,0.02-0.06,0.03c-2.66-1.92-5.63-3.83-8.77-5.19c1,1.1,2,2.21,3,3.31c1.28,1.41,2.56,2.82,3.83,4.24
		c0.17,0.19,0.43,0.39,0.53,0.62c0.08,0.18-0.17,1.4-0.17,1.41c-0.03,0.38-0.03,0.77-0.02,1.15c0.02,0.81,0.11,1.62,0.26,2.41
		c0.32,1.74,0.87,4.25,2.04,5.67c0.86,1.04,2.65,1.83,3.78,2.55c1.75,1.12,3.52,2.22,5.31,3.29c6.8,4.07,13.83,7.76,21.04,11.06
		c12.36,5.65,25.24,10.17,38.4,13.55C92.74,56.52,102.08,58.34,111.49,59.47z M21.63,20.37c-0.36,0.53-0.74,1.05-1.15,1.54
		c-0.41,0.5-0.83,0.99-1.28,1.45c-0.45,0.47-0.9,0.92-1.42,1.36l-0.75-1.05c0.5-0.3,1.03-0.67,1.52-1.04
		c0.5-0.37,0.99-0.77,1.46-1.18c0.47-0.41,0.93-0.84,1.37-1.3c0.44-0.45,0.85-0.93,1.25-1.43C22.32,19.29,22,19.85,21.63,20.37z"/>
	<path class="st0" d="M122.85,52.4c-0.14-0.57-0.33-1.12-0.59-1.58c-0.13-0.24-0.28-0.43-0.44-0.6c-0.17-0.15-0.34-0.25-0.53-0.29
		c-0.05-0.01-0.1-0.01-0.15-0.01c-0.08,0.26-0.14,0.48-0.15,0.51c0.34-0.95,0.07-0.13,0,0.29c-0.14,0.78-0.19,1.58-0.2,2.37
		c-0.01,2.53,0.57,4.97,1.51,7.31c0.14,0.35-0.19,1-0.33,1.36c0.02-0.01,0.03-0.02,0.05-0.04c0.15-0.17,0.3-0.37,0.42-0.61
		c0.25-0.47,0.42-1.03,0.54-1.6c0.12-0.57,0.2-1.16,0.25-1.76c0.04-0.6,0.06-1.2,0.05-1.8c-0.01-0.6-0.05-1.2-0.11-1.8
		C123.09,53.55,122.99,52.96,122.85,52.4z"/>
	<path class="st0" d="M1.01,1.65c-0.28,0.7-0.52,1.51-0.4,1.65C1.26,4,1.9,4.71,2.54,5.43C1.9,4.71,1.26,4,0.61,3.29
		C0.49,3.16,0.73,2.35,1.01,1.65z"/>
	<path class="st0" d="M122.78,49.22c0.09,0.06,0.17,0.11,0.25,0.18C122.95,49.34,122.87,49.28,122.78,49.22z"/>
	<path class="st0" d="M118.84,52.7c0.16-0.02,0.32-0.05,0.48-0.08l0.35-0.07c0.12-0.02,0.19-0.05,0.29-0.07l0.07,0.24
		c0.06-0.33,0.14-0.66,0.22-0.99c-0.35,0.03-0.7,0.05-1.06,0.07c-0.06,0.13-0.12,0.26-0.17,0.4
		C118.95,52.37,118.89,52.53,118.84,52.7z"/>
	<path class="st0" d="M119.15,59.83c0.06,0.14,0.13,0.29,0.2,0.43c0.34,0.02,0.67,0.04,1.01,0.06c-0.46-1.81-0.67-3.66-0.58-5.5
		l-0.07,0.01c-0.28,0.05-0.56,0.09-0.83,0.11l-0.49,0.05c-0.03,0.35-0.04,0.69-0.04,1.04c0.02,0.65,0.08,1.3,0.21,1.94
		C118.7,58.61,118.89,59.24,119.15,59.83z"/>
	<path class="st0" d="M124.12,61.5c-0.01,0.02-0.03,0.04-0.04,0.06C124.09,61.54,124.1,61.52,124.12,61.5z"/>
	<path class="st0" d="M90.47,43.28c6.8,2.62,14,4.77,21.3,5.55C104.46,48.05,97.27,45.91,90.47,43.28
		c-10.64-4.11-20.72-9.59-30.39-15.62c-0.21-0.13-0.42-0.27-0.63-0.4c0.21,0.13,0.42,0.27,0.63,0.4
		C69.74,33.69,79.83,39.18,90.47,43.28z"/>
	<path class="st0" d="M121.48,63.16c-0.07-0.01-0.14-0.02-0.2-0.03C121.35,63.14,121.41,63.16,121.48,63.16z"/>
	<path class="st0" d="M111.85,48.84c0.03,0,0.06,0.01,0.09,0.01C111.91,48.85,111.88,48.85,111.85,48.84z"/>
	<path class="st0" d="M120.55,49.03c0.17-0.09,0.35-0.16,0.54-0.2C120.89,48.87,120.71,48.94,120.55,49.03z"/>
	<path class="st0" d="M125.54,55.91c-0.04-1.4-0.28-2.82-0.85-4.15c-0.29-0.67-0.65-1.32-1.18-1.9l-0.2-0.21
		c-0.06-0.05-0.12-0.11-0.19-0.16c0.06,0.05,0.13,0.11,0.19,0.16l0.2,0.21c0.53,0.58,0.89,1.23,1.18,1.9
		C125.26,53.09,125.51,54.5,125.54,55.91c0,0.7-0.04,1.41-0.15,2.11c-0.06,0.36-0.13,0.71-0.23,1.07c0.09-0.35,0.17-0.71,0.23-1.07
		C125.51,57.32,125.54,56.61,125.54,55.91z"/>
	<path class="st0" d="M24.93,2.31c0.77,0.32,1.55,0.98,2.28,1.65C26.48,3.3,25.7,2.63,24.93,2.31c-0.4-0.16-0.87-0.12-1.35,0.03
		C24.06,2.2,24.53,2.15,24.93,2.31z"/>
	<path class="st0" d="M40.08,14c-1.36-1-2.71-2.01-4.05-3.03c-2.14-1.63-4.26-3.28-6.36-4.95c2.11,1.67,4.23,3.32,6.37,4.95
		C37.38,11.99,38.73,13,40.08,14z"/>
	<path class="st0" d="M18.71,5.08c-0.3,0.19-0.61,0.38-0.91,0.58c-0.1,0.07-0.21,0.14-0.31,0.23c0.11-0.08,0.21-0.16,0.31-0.22
		C18.1,5.47,18.41,5.28,18.71,5.08z"/>
	<path class="st0" d="M11.35,4.73c1,0.59,2,1.21,2.94,1.89c0.48,0.35,0.65,0.66,1.05,0.62c-0.4,0.04-0.57-0.27-1.05-0.62
		C13.35,5.94,12.36,5.32,11.35,4.73C9.74,3.77,8.06,2.9,6.32,2.16C5.01,1.59,3.64,1.05,2.24,0.7c1.4,0.35,2.77,0.9,4.09,1.46
		C8.05,2.9,9.73,3.77,11.35,4.73z"/>
	<path class="st1" d="M125.54,55.91c-0.03-1.41-0.28-2.82-0.85-4.15c-0.29-0.67-0.65-1.32-1.18-1.9l-0.2-0.21
		c-0.06-0.06-0.12-0.11-0.19-0.16c-0.02-0.01-0.03-0.03-0.04-0.04c-0.02-0.02-0.04-0.03-0.06-0.05c-0.08-0.06-0.16-0.12-0.25-0.18
		c-0.07-0.04-0.14-0.09-0.21-0.13c-0.38-0.2-0.84-0.33-1.31-0.29c-0.06,0.01-0.12,0.02-0.17,0.03c-0.2,0.04-0.38,0.11-0.54,0.2
		c-0.02,0.01-0.04,0.02-0.06,0.03c-2.86,0.17-5.71,0.09-8.55-0.21c-0.03,0-0.06-0.01-0.09-0.01c-0.03,0-0.05-0.01-0.08-0.01
		c-7.3-0.78-14.5-2.93-21.3-5.55c-10.64-4.11-20.72-9.59-30.39-15.62c-0.21-0.13-0.42-0.27-0.63-0.4
		C52.82,23.11,46.37,18.66,40.08,14c-1.36-1-2.71-2.01-4.05-3.03c-2.14-1.63-4.26-3.28-6.37-4.95c-0.39-0.31-0.78-0.61-1.17-0.92
		c-0.4-0.32-0.84-0.73-1.29-1.14c-0.73-0.66-1.5-1.33-2.28-1.65c-0.4-0.16-0.87-0.12-1.35,0.03c-0.97,0.3-2,1.02-2.65,1.39
		c-0.75,0.43-1.49,0.89-2.21,1.35c-0.3,0.19-0.61,0.38-0.91,0.58c-0.1,0.07-0.21,0.14-0.31,0.22C16.88,6.35,16.17,7,15.53,7.2
		c-0.07,0.02-0.13,0.03-0.18,0.04c-0.4,0.04-0.57-0.27-1.05-0.62c-0.94-0.68-1.94-1.3-2.94-1.89C9.73,3.77,8.05,2.9,6.32,2.16
		C5.01,1.6,3.64,1.05,2.24,0.7c-0.2-0.05-0.41-0.1-0.61-0.14C1.51,0.54,1.24,1.05,1.01,1.65c-0.28,0.7-0.52,1.51-0.4,1.64
		C1.26,4,1.9,4.71,2.54,5.43c1.31,1.44,2.61,2.89,3.92,4.33c1.3,1.43,2.59,2.87,3.89,4.3c0.38,0.42,0.89,0.84,1.19,1.32
		c0.33,0.52,0.24,0.65,0.18,1.27c-0.01,0.06-0.01,0.13-0.02,0.2c-0.03,0.4-0.04,0.8-0.04,1.2c0.02,1.78,0.38,3.55,0.96,5.23
		c0.14,0.4,0.29,0.8,0.45,1.2c0.13,0.32,0.27,0.71,0.43,1.07c0.13,0.3,0.28,0.58,0.46,0.81c0.38,0.49,0.97,0.91,1.59,1.3
		c0.68,0.42,1.41,0.8,1.97,1.17c1.56,1,3.13,1.98,4.71,2.94c2.4,1.46,4.84,2.86,7.3,4.22c3.01,1.66,6.06,3.26,9.14,4.77
		c7.31,3.59,14.84,6.79,22.52,9.59c15.07,5.48,30.74,9.37,46.59,11.52c4.45,0.6,8.96,1.15,13.46,1.26c0.01,0,0.02,0,0.03,0.01
		c0.07,0.01,0.13,0.03,0.2,0.03c0.01,0,0.02,0,0.03,0c0.47,0.02,0.92-0.12,1.3-0.34c0.07-0.05,0.15-0.1,0.22-0.15
		c0.1-0.07,0.2-0.14,0.28-0.23c0.07-0.07,0.15-0.14,0.22-0.21l0.19-0.22c0.12-0.15,0.24-0.3,0.34-0.45c0,0,0.01-0.01,0.01-0.01
		c0.01-0.02,0.03-0.04,0.04-0.06c0.3-0.45,0.53-0.93,0.72-1.41c0.13-0.33,0.23-0.67,0.32-1c0.09-0.35,0.17-0.71,0.23-1.07
		C125.5,57.32,125.54,56.61,125.54,55.91z M120.24,51.74c-0.08,0.33-0.16,0.66-0.22,0.99l-0.07-0.24c-0.1,0.02-0.17,0.05-0.29,0.07
		l-0.35,0.07c-0.16,0.03-0.31,0.06-0.48,0.08c0.05-0.17,0.11-0.33,0.18-0.5c0.05-0.14,0.11-0.27,0.17-0.4
		C119.54,51.79,119.89,51.76,120.24,51.74z M24.11,29.56c-1.79-1.07-3.56-2.17-5.31-3.29c-1.13-0.73-2.92-1.51-3.78-2.55
		c-1.17-1.42-1.72-3.93-2.04-5.67c-0.15-0.8-0.24-1.6-0.26-2.41c-0.01-0.38-0.01-0.77,0.02-1.15c0,0,0.24-1.23,0.17-1.41
		c-0.1-0.23-0.36-0.44-0.53-0.62c-1.28-1.41-2.56-2.82-3.83-4.24c-1-1.1-2-2.21-3-3.31c3.14,1.36,6.11,3.27,8.77,5.19
		c0.02-0.01,0.04-0.02,0.06-0.03c0.49-0.35,1-0.72,1.51-1.09l0.54,0.71c0.66-0.53,1.33-1.04,2.04-1.47c0.71-0.43,1.45-0.8,2.21-1.02
		c0.75-0.2,1.54-0.25,2.19,0.07c0.65,0.3,1.15,0.94,1.44,1.69c0.29,0.75,0.43,1.6,0.45,2.44c0,0.42,0.01,0.86-0.06,1.27
		c-0.04,0.42-0.14,0.83-0.29,1.22c-0.29,0.78-0.86,1.46-1.6,1.88c-0.74,0.41-1.62,0.63-2.49,0.61c0.87,0.09,1.77-0.06,2.58-0.43
		c0.81-0.38,1.49-1.07,1.87-1.9c0.19-0.41,0.34-0.85,0.42-1.3c0.11-0.45,0.14-0.89,0.17-1.34c0.05-0.9-0.02-1.82-0.29-2.72
		c-0.14-0.45-0.34-0.89-0.62-1.3c-0.28-0.4-0.66-0.77-1.11-1.02c-0.45-0.26-0.96-0.4-1.46-0.44c-0.45-0.04-0.89-0.01-1.32,0.06
		c0.74-0.37,1.5-0.68,2.26-0.9c1.2-0.35,1.84,0.5,2.74,1.21c4.44,3.51,8.88,7.02,13.43,10.38C54.58,28.21,71.28,39,89.46,46.01
		c9.29,3.58,19.31,6.28,29.34,5.81c-0.02,0.1-0.05,0.19-0.07,0.29c-0.05,0.21-0.09,0.41-0.12,0.62l-0.73,0.09l-0.37,0.04l-0.37,0.02
		l-1.5,0.07c-0.5,0.03-1.01-0.01-1.51-0.01l-1.52-0.03l-1.52-0.13c-1.01-0.09-2.03-0.14-3.04-0.32l-3.04-0.44
		c-1.01-0.19-2.01-0.41-3.02-0.61l-1.51-0.31c-0.25-0.05-0.5-0.1-0.75-0.16l-0.75-0.2l-2.99-0.79c-2-0.48-3.95-1.17-5.92-1.78
		c-0.98-0.32-1.97-0.61-2.95-0.95l-2.9-1.08l-2.91-1.08c-0.48-0.18-0.97-0.36-1.45-0.54l-1.43-0.61l-5.72-2.42
		c-0.96-0.39-1.89-0.84-2.83-1.28l-2.81-1.33l-2.81-1.33c-0.93-0.45-1.88-0.87-2.79-1.37l-5.51-2.88c-1.83-0.97-3.69-1.89-5.48-2.94
		l-5.41-3.07l-2.71-1.54c-0.45-0.26-0.9-0.51-1.35-0.77l-1.33-0.81l-10.61-6.51l10.47,6.75l1.31,0.84c0.44,0.27,0.89,0.54,1.33,0.8
		l2.67,1.6l5.35,3.2c1.77,1.1,3.61,2.06,5.42,3.07l5.46,3.01c0.9,0.52,1.84,0.96,2.77,1.43l2.79,1.4l2.79,1.4
		c0.93,0.47,1.85,0.94,2.81,1.35l5.69,2.57l1.42,0.64c0.48,0.2,0.97,0.39,1.45,0.58l2.9,1.16l2.9,1.16
		c0.98,0.37,1.97,0.69,2.95,1.03c1.98,0.67,3.93,1.4,5.96,1.94l3.01,0.87l0.75,0.22c0.25,0.07,0.51,0.12,0.76,0.18l1.53,0.35
		c1.02,0.23,2.04,0.48,3.07,0.69l3.11,0.53c1.03,0.2,2.09,0.28,3.14,0.4l1.58,0.17l1.59,0.07c0.53,0.01,1.06,0.06,1.6,0.05
		l1.61-0.04l0.4-0.01l0.41-0.04l0.3-0.03c-0.01,0.35-0.01,0.69-0.01,1.04c0-0.35,0.01-0.69,0.04-1.04l0.49-0.05
		c0.27-0.02,0.55-0.06,0.83-0.11l0.07-0.01c-0.1,1.84,0.12,3.69,0.58,5.5c-0.34-0.02-0.67-0.04-1.01-0.06
		c-0.07-0.14-0.14-0.28-0.2-0.43c-0.26-0.59-0.44-1.22-0.58-1.85c-0.13-0.64-0.18-1.29-0.21-1.94c0.03,1.31,0.15,2.61,0.49,3.9
		c0.03,0.1,0.06,0.2,0.09,0.3c-2.49-0.17-4.98-0.45-7.44-0.75c-9.42-1.14-18.75-2.96-27.94-5.31c-13.16-3.37-26.04-7.89-38.4-13.55
		C37.94,37.32,30.91,33.63,24.11,29.56z M123.22,57.75c-0.05,0.6-0.13,1.19-0.25,1.76c-0.12,0.57-0.29,1.13-0.54,1.6
		c-0.12,0.24-0.27,0.44-0.42,0.61c-0.02,0.02-0.03,0.02-0.05,0.04c0.14-0.36,0.48-1.01,0.33-1.36c-0.94-2.34-1.52-4.78-1.51-7.31
		c0-0.79,0.06-1.59,0.2-2.37c0.07-0.43,0.34-1.24,0-0.29c0.01-0.03,0.08-0.25,0.15-0.51c0.05,0,0.1,0,0.15,0.01
		c0.2,0.04,0.37,0.15,0.53,0.29c0.16,0.17,0.32,0.36,0.44,0.6c0.26,0.46,0.45,1.02,0.59,1.58c0.14,0.57,0.24,1.16,0.31,1.75
		c0.06,0.6,0.1,1.2,0.11,1.8C123.29,56.55,123.27,57.15,123.22,57.75z"/>
	<path class="st1" d="M20.01,21.47c-0.47,0.41-0.96,0.81-1.46,1.18c-0.5,0.37-1.02,0.73-1.52,1.04l0.75,1.05
		c0.52-0.45,0.97-0.89,1.42-1.36c0.45-0.47,0.87-0.95,1.28-1.45c0.41-0.5,0.79-1.01,1.15-1.54c0.37-0.52,0.69-1.08,1-1.63
		c-0.4,0.49-0.8,0.98-1.25,1.43C20.94,20.62,20.48,21.06,20.01,21.47z"/>
</g>
</svg>
