<?xml version="1.0" encoding="utf-8"?>
<!-- Generator: Adobe Illustrator 23.0.4, SVG Export Plug-In . SVG Version: 6.00 Build 0)  -->
<svg version="1.1" id="Layer_1" xmlns="http://www.w3.org/2000/svg" xmlns:xlink="http://www.w3.org/1999/xlink" x="0px" y="0px"
	 viewBox="0 0 63.5 31.61" style="enable-background:new 0 0 63.5 31.61;" xml:space="preserve">
<style type="text/css">
	.st0{fill:#FFFFFF;}
	.st1{fill:#231F20;}
</style>
<g>
	<path class="st0" d="M7.53,13.62c0.34,0.21,0.71,0.4,0.99,0.59c0.78,0.5,1.57,0.99,2.37,1.48c-0.8-0.48-1.58-0.97-2.37-1.48
		C8.24,14.03,7.87,13.84,7.53,13.62z"/>
	<path class="st0" d="M14.56,17.81c1.51,0.84,3.04,1.64,4.6,2.4c3.68,1.81,7.46,3.42,11.32,4.82c-3.86-1.4-7.64-3.01-11.32-4.82
		C17.6,19.44,16.07,18.64,14.56,17.81z"/>
	<path class="st0" d="M6.06,11.42c0.07,0.2,0.14,0.4,0.23,0.6c0.07,0.16,0.14,0.36,0.22,0.54c-0.08-0.18-0.15-0.38-0.22-0.54
		C6.2,11.82,6.12,11.62,6.06,11.42z"/>
	<path class="st0" d="M61.81,31.01c-0.04,0.04-0.08,0.07-0.11,0.1c-0.04,0.04-0.09,0.08-0.14,0.11c0.05-0.04,0.1-0.07,0.14-0.11
		C61.73,31.08,61.77,31.04,61.81,31.01l0.1-0.11c0.06-0.07,0.12-0.15,0.17-0.23c-0.05,0.08-0.11,0.15-0.17,0.23L61.81,31.01z"/>
	<path class="st0" d="M5.59,8.19c0-0.04,0.01-0.07,0.01-0.1C5.6,8.12,5.59,8.15,5.59,8.19c-0.02,0.2-0.02,0.4-0.02,0.6
		C5.57,8.59,5.58,8.39,5.59,8.19z"/>
	<path class="st0" d="M55.76,29.62C57,29.77,58.25,29.91,59.5,30c-0.01-0.05-0.03-0.1-0.04-0.15c-0.17-0.65-0.23-1.31-0.25-1.96
		c0-0.17,0-0.35,0.01-0.52l-0.15,0.01l-0.2,0.02l-0.2,0.01l-0.81,0.02c-0.27,0.01-0.53-0.02-0.8-0.02l-0.8-0.03l-0.79-0.08
		c-0.53-0.06-1.06-0.1-1.58-0.2l-1.56-0.26c-0.52-0.11-1.03-0.23-1.54-0.35L50,26.29c-0.13-0.03-0.26-0.06-0.38-0.09l-0.38-0.11
		l-1.52-0.44c-1.02-0.27-2-0.64-2.99-0.97c-0.49-0.17-0.99-0.33-1.48-0.52l-1.46-0.58L40.32,23c-0.24-0.1-0.49-0.19-0.73-0.29
		l-0.72-0.32l-2.86-1.29c-0.48-0.21-0.95-0.45-1.41-0.68l-1.4-0.7l-1.4-0.7c-0.47-0.24-0.94-0.46-1.39-0.72l-2.74-1.51
		c-0.91-0.51-1.84-0.99-2.73-1.54l-2.69-1.61l-1.34-0.8c-0.22-0.13-0.45-0.27-0.67-0.4l-0.66-0.42L14.32,8.6l5.34,3.27l0.67,0.41
		c0.22,0.13,0.45,0.26,0.68,0.39l1.36,0.77l2.72,1.54c0.9,0.53,1.83,0.99,2.75,1.48l2.77,1.45c0.46,0.25,0.93,0.46,1.4,0.69
		l1.41,0.67l1.41,0.67c0.47,0.22,0.94,0.45,1.42,0.65l2.87,1.22l0.72,0.3c0.24,0.09,0.49,0.18,0.73,0.27l1.46,0.54l1.46,0.54
		c0.49,0.17,0.99,0.32,1.48,0.48c0.99,0.31,1.97,0.65,2.98,0.89l1.5,0.4l0.38,0.1c0.13,0.03,0.25,0.05,0.38,0.08l0.76,0.16
		c0.51,0.1,1.01,0.21,1.52,0.31l1.53,0.22c0.51,0.09,1.02,0.12,1.53,0.16l0.77,0.06l0.76,0.01c0.25,0,0.51,0.02,0.76,0.01l0.75-0.04
		l0.19-0.01l0.18-0.02l0.37-0.04c0.02-0.1,0.04-0.21,0.06-0.31c0.01-0.05,0.02-0.1,0.04-0.15c-5.04,0.24-10.08-1.12-14.75-2.92
		C35.54,19.32,27.15,13.9,19.3,8.1c-2.29-1.69-4.52-3.45-6.75-5.22c-0.45-0.36-0.77-0.78-1.38-0.61c-0.38,0.11-0.76,0.27-1.14,0.45
		c0.22-0.03,0.44-0.05,0.66-0.03c0.25,0.02,0.51,0.09,0.73,0.22c0.23,0.13,0.42,0.31,0.56,0.51c0.14,0.2,0.24,0.43,0.31,0.65
		c0.14,0.45,0.17,0.91,0.15,1.37c-0.02,0.23-0.03,0.45-0.08,0.67c-0.04,0.22-0.11,0.44-0.21,0.65c-0.19,0.42-0.53,0.76-0.94,0.96
		c-0.41,0.19-0.86,0.26-1.3,0.22c0.44,0.01,0.88-0.1,1.25-0.31c0.37-0.21,0.65-0.55,0.8-0.95c0.07-0.2,0.12-0.4,0.14-0.61
		c0.04-0.21,0.03-0.43,0.03-0.64c-0.01-0.42-0.08-0.85-0.23-1.23c-0.15-0.38-0.39-0.7-0.72-0.85c-0.33-0.16-0.72-0.13-1.1-0.03
		C9.71,3.44,9.34,3.62,8.99,3.84c-0.36,0.22-0.7,0.47-1.03,0.74L7.69,4.22C7.43,4.41,7.18,4.6,6.93,4.77
		C6.92,4.78,6.91,4.78,6.9,4.79C5.57,3.82,4.07,2.87,2.5,2.18C3,2.73,3.5,3.29,4,3.85c0.64,0.71,1.28,1.42,1.93,2.13
		c0.08,0.09,0.22,0.2,0.27,0.31C6.23,6.38,6.11,6.99,6.11,7C6.1,7.19,6.1,7.38,6.1,7.57c0.01,0.41,0.06,0.81,0.13,1.21
		c0.16,0.87,0.44,2.14,1.03,2.85c0.43,0.52,1.33,0.92,1.9,1.28c0.88,0.57,1.77,1.12,2.67,1.66c3.42,2.05,6.95,3.9,10.58,5.56
		c6.21,2.84,12.69,5.11,19.3,6.81C46.33,28.13,51.02,29.04,55.76,29.62z M10.58,9.96c-0.18,0.27-0.37,0.53-0.58,0.78
		c-0.2,0.25-0.42,0.5-0.64,0.73c-0.23,0.24-0.45,0.46-0.71,0.69l-0.38-0.53c0.25-0.15,0.52-0.34,0.77-0.52
		c0.25-0.19,0.5-0.38,0.73-0.59c0.24-0.21,0.47-0.42,0.69-0.65c0.22-0.23,0.43-0.47,0.63-0.72C10.93,9.42,10.77,9.7,10.58,9.96z"/>
	<path class="st0" d="M61.47,26.06c-0.07-0.28-0.17-0.56-0.3-0.79c-0.06-0.12-0.14-0.22-0.22-0.3c-0.08-0.07-0.17-0.13-0.27-0.15
		c-0.02,0-0.05,0-0.08,0c-0.04,0.13-0.07,0.24-0.08,0.25c0.17-0.48,0.04-0.07,0,0.15c-0.07,0.39-0.1,0.79-0.1,1.19
		c-0.01,1.27,0.29,2.5,0.76,3.67c0.07,0.18-0.1,0.5-0.17,0.69c0.01-0.01,0.02-0.01,0.03-0.02c0.08-0.09,0.15-0.19,0.21-0.31
		c0.12-0.24,0.21-0.52,0.27-0.8c0.06-0.29,0.1-0.58,0.13-0.88c0.02-0.3,0.03-0.6,0.03-0.91c-0.01-0.3-0.03-0.61-0.06-0.9
		C61.59,26.64,61.54,26.34,61.47,26.06z"/>
	<path class="st0" d="M0.22,0.55C0.07,0.9-0.04,1.31,0.02,1.37c0.32,0.36,0.65,0.72,0.97,1.07C0.66,2.09,0.34,1.73,0.02,1.37
		C-0.04,1.31,0.07,0.9,0.22,0.55z"/>
	<path class="st0" d="M61.43,24.46c0.04,0.03,0.09,0.06,0.12,0.09C61.52,24.52,61.47,24.49,61.43,24.46z"/>
	<path class="st0" d="M59.45,26.21c0.08-0.01,0.16-0.03,0.24-0.04l0.17-0.03c0.06-0.01,0.1-0.02,0.15-0.03l0.04,0.12
		c0.03-0.17,0.07-0.33,0.11-0.5c-0.18,0.01-0.35,0.03-0.53,0.03c-0.03,0.07-0.06,0.13-0.09,0.2C59.5,26.04,59.48,26.13,59.45,26.21z
		"/>
	<path class="st0" d="M59.6,29.79c0.03,0.07,0.07,0.14,0.1,0.22c0.17,0.01,0.34,0.02,0.51,0.03c-0.23-0.91-0.34-1.84-0.29-2.76
		l-0.04,0.01c-0.14,0.03-0.28,0.05-0.42,0.06l-0.24,0.02c-0.01,0.17-0.02,0.35-0.02,0.52c0.01,0.33,0.04,0.66,0.1,0.98
		C59.38,29.18,59.47,29.5,59.6,29.79z"/>
	<path class="st0" d="M62.1,30.63c-0.01,0.01-0.01,0.02-0.02,0.03C62.09,30.66,62.1,30.65,62.1,30.63z"/>
	<path class="st0" d="M45.19,21.48c3.42,1.32,7.04,2.4,10.71,2.79C52.22,23.88,48.61,22.8,45.19,21.48
		c-5.35-2.06-10.42-4.82-15.28-7.85c-0.11-0.07-0.21-0.13-0.32-0.2c0.11,0.07,0.21,0.13,0.32,0.2
		C34.77,16.65,39.84,19.41,45.19,21.48z"/>
	<path class="st0" d="M60.78,31.47c-0.03,0-0.07-0.01-0.1-0.02C60.71,31.46,60.74,31.47,60.78,31.47z"/>
	<path class="st0" d="M55.93,24.27c0.01,0,0.03,0,0.04,0C55.96,24.27,55.95,24.27,55.93,24.27z"/>
	<path class="st0" d="M60.31,24.37c0.08-0.04,0.17-0.08,0.27-0.1C60.48,24.28,60.39,24.32,60.31,24.37z"/>
	<path class="st0" d="M62.82,27.82c-0.02-0.71-0.14-1.42-0.43-2.09c-0.14-0.34-0.33-0.66-0.59-0.95l-0.1-0.11
		c-0.03-0.03-0.06-0.05-0.09-0.08c0.03,0.03,0.06,0.05,0.09,0.08l0.1,0.11c0.26,0.29,0.45,0.62,0.59,0.95
		C62.68,26.41,62.8,27.12,62.82,27.82c0,0.35-0.02,0.71-0.07,1.06c-0.03,0.18-0.07,0.36-0.12,0.54c0.05-0.18,0.09-0.36,0.12-0.54
		C62.8,28.53,62.82,28.18,62.82,27.82z"/>
	<path class="st0" d="M12.24,0.88c0.39,0.16,0.78,0.49,1.14,0.83C13.02,1.38,12.63,1.04,12.24,0.88c-0.2-0.08-0.44-0.06-0.68,0.02
		C11.8,0.82,12.04,0.8,12.24,0.88z"/>
	<path class="st0" d="M19.86,6.76c-0.68-0.5-1.36-1.01-2.04-1.52c-1.07-0.82-2.14-1.65-3.2-2.49c1.06,0.84,2.12,1.67,3.2,2.49
		C18.5,5.75,19.18,6.25,19.86,6.76z"/>
	<path class="st0" d="M9.11,2.27c-0.15,0.1-0.31,0.19-0.46,0.29C8.61,2.6,8.55,2.64,8.5,2.68C8.55,2.64,8.61,2.6,8.66,2.57
		C8.81,2.47,8.96,2.37,9.11,2.27z"/>
	<path class="st0" d="M5.42,2.1c0.5,0.3,1,0.61,1.48,0.95c0.24,0.18,0.33,0.33,0.53,0.31C7.22,3.38,7.14,3.22,6.9,3.05
		C6.42,2.7,5.92,2.39,5.42,2.1C4.6,1.61,3.76,1.18,2.89,0.8C2.22,0.52,1.54,0.25,0.83,0.07c0.7,0.18,1.39,0.45,2.05,0.73
		C3.76,1.18,4.6,1.61,5.42,2.1z"/>
	<path class="st1" d="M62.82,27.82c-0.02-0.71-0.14-1.42-0.43-2.09c-0.14-0.33-0.33-0.66-0.59-0.95l-0.1-0.11
		c-0.03-0.03-0.06-0.05-0.09-0.08c-0.01-0.01-0.02-0.01-0.02-0.02c-0.01-0.01-0.02-0.02-0.03-0.02c-0.04-0.03-0.08-0.06-0.12-0.09
		c-0.04-0.02-0.07-0.04-0.11-0.07c-0.19-0.1-0.42-0.17-0.66-0.15c-0.03,0-0.06,0.01-0.09,0.02c-0.1,0.02-0.19,0.06-0.27,0.1
		c-0.01,0.01-0.02,0.01-0.03,0.01c-1.44,0.09-2.87,0.04-4.3-0.1c-0.01,0-0.03,0-0.04,0c-0.01,0-0.03,0-0.04,0
		c-3.67-0.39-7.29-1.47-10.71-2.79c-5.35-2.06-10.42-4.82-15.28-7.85c-0.11-0.07-0.21-0.13-0.32-0.2c-3.33-2.09-6.57-4.33-9.73-6.67
		c-0.68-0.5-1.36-1.01-2.04-1.52c-1.08-0.82-2.14-1.65-3.2-2.49c-0.2-0.16-0.39-0.31-0.59-0.46c-0.2-0.16-0.42-0.37-0.65-0.57
		c-0.37-0.33-0.76-0.67-1.14-0.83c-0.2-0.08-0.44-0.06-0.68,0.02c-0.49,0.15-1.01,0.51-1.33,0.7C9.85,1.81,9.48,2.04,9.11,2.27
		c-0.15,0.1-0.31,0.19-0.46,0.29C8.61,2.6,8.55,2.64,8.5,2.68c-0.3,0.23-0.66,0.56-0.98,0.66C7.48,3.35,7.45,3.36,7.42,3.36
		c-0.2,0.02-0.28-0.14-0.53-0.31C6.42,2.7,5.92,2.39,5.42,2.1C4.6,1.61,3.76,1.18,2.89,0.8C2.23,0.52,1.54,0.25,0.83,0.07
		C0.73,0.05,0.63,0.02,0.52,0C0.47-0.01,0.33,0.25,0.22,0.55C0.07,0.9-0.04,1.31,0.02,1.37c0.32,0.36,0.65,0.72,0.97,1.07
		C1.64,3.17,2.3,3.9,2.96,4.62c0.65,0.72,1.3,1.44,1.96,2.16c0.19,0.21,0.45,0.42,0.6,0.66C5.68,7.71,5.63,7.77,5.6,8.09
		c0,0.03-0.01,0.06-0.01,0.1c-0.02,0.2-0.02,0.4-0.02,0.6c0.01,0.89,0.19,1.78,0.48,2.63c0.07,0.2,0.14,0.4,0.23,0.6
		c0.07,0.16,0.14,0.36,0.22,0.54c0.07,0.15,0.14,0.29,0.23,0.41c0.19,0.25,0.49,0.46,0.8,0.66c0.34,0.21,0.71,0.4,0.99,0.59
		c0.78,0.5,1.57,0.99,2.37,1.48c1.21,0.73,2.43,1.44,3.67,2.12c1.51,0.84,3.04,1.64,4.6,2.4c3.68,1.81,7.46,3.42,11.32,4.82
		c7.58,2.75,15.45,4.71,23.42,5.79c2.24,0.3,4.5,0.58,6.76,0.63c0.01,0,0.01,0,0.02,0c0.03,0.01,0.07,0.01,0.1,0.02
		c0,0,0.01,0,0.01,0c0.23,0.01,0.46-0.06,0.65-0.17c0.04-0.02,0.07-0.05,0.11-0.07c0.05-0.04,0.1-0.07,0.14-0.11
		c0.04-0.03,0.08-0.07,0.11-0.1l0.1-0.11c0.06-0.07,0.12-0.15,0.17-0.23c0,0,0,0,0-0.01c0.01-0.01,0.01-0.02,0.02-0.03
		c0.15-0.23,0.27-0.47,0.36-0.71c0.06-0.17,0.12-0.33,0.16-0.5c0.05-0.18,0.09-0.36,0.12-0.54C62.8,28.53,62.82,28.18,62.82,27.82z
		 M60.16,25.73c-0.04,0.17-0.08,0.33-0.11,0.5l-0.04-0.12c-0.05,0.01-0.08,0.02-0.15,0.03l-0.17,0.03
		c-0.08,0.02-0.16,0.03-0.24,0.04c0.03-0.08,0.06-0.17,0.09-0.25c0.03-0.07,0.06-0.14,0.09-0.2C59.8,25.75,59.98,25.74,60.16,25.73z
		 M11.83,14.58c-0.9-0.54-1.79-1.09-2.67-1.66c-0.57-0.37-1.47-0.76-1.9-1.28C6.67,10.92,6.4,9.66,6.23,8.79
		C6.16,8.39,6.11,7.98,6.1,7.57c0-0.19,0-0.39,0.01-0.58c0,0,0.12-0.62,0.08-0.71C6.15,6.17,6.01,6.07,5.93,5.98
		C5.29,5.27,4.65,4.56,4,3.85C3.5,3.29,3,2.73,2.5,2.18C4.07,2.87,5.57,3.82,6.9,4.79c0.01-0.01,0.02-0.01,0.03-0.02
		c0.25-0.18,0.5-0.36,0.76-0.55l0.27,0.36c0.33-0.27,0.67-0.52,1.03-0.74c0.36-0.22,0.73-0.4,1.11-0.51c0.38-0.1,0.77-0.12,1.1,0.03
		c0.33,0.15,0.58,0.47,0.72,0.85c0.15,0.38,0.22,0.8,0.23,1.23c0,0.21,0,0.43-0.03,0.64c-0.02,0.21-0.07,0.42-0.14,0.61
		c-0.15,0.39-0.43,0.73-0.8,0.95c-0.37,0.21-0.81,0.32-1.25,0.31c0.44,0.04,0.89-0.03,1.3-0.22c0.41-0.19,0.75-0.54,0.94-0.96
		c0.1-0.21,0.17-0.43,0.21-0.65c0.06-0.22,0.07-0.45,0.08-0.67C12.47,5,12.44,4.53,12.3,4.08c-0.07-0.23-0.17-0.45-0.31-0.65
		c-0.14-0.2-0.33-0.39-0.56-0.51c-0.23-0.13-0.48-0.2-0.73-0.22c-0.23-0.02-0.45,0-0.66,0.03c0.37-0.19,0.75-0.34,1.14-0.45
		c0.6-0.17,0.93,0.25,1.38,0.61c2.23,1.77,4.47,3.53,6.75,5.22c7.84,5.8,16.24,11.22,25.38,14.75c4.67,1.8,9.7,3.16,14.75,2.92
		c-0.01,0.05-0.03,0.1-0.04,0.15c-0.02,0.1-0.04,0.21-0.06,0.31l-0.37,0.04l-0.18,0.02l-0.19,0.01l-0.75,0.04
		c-0.25,0.01-0.51-0.01-0.76-0.01l-0.76-0.01l-0.77-0.06c-0.51-0.05-1.02-0.07-1.53-0.16l-1.53-0.22c-0.51-0.09-1.01-0.21-1.52-0.31
		l-0.76-0.16c-0.13-0.03-0.25-0.05-0.38-0.08l-0.38-0.1l-1.5-0.4c-1.01-0.24-1.99-0.59-2.98-0.89c-0.49-0.16-0.99-0.31-1.48-0.48
		l-1.46-0.54l-1.46-0.54c-0.24-0.09-0.49-0.18-0.73-0.27l-0.72-0.3l-2.87-1.22c-0.48-0.19-0.95-0.42-1.42-0.65l-1.41-0.67
		l-1.41-0.67c-0.47-0.23-0.95-0.44-1.4-0.69l-2.77-1.45c-0.92-0.49-1.86-0.95-2.75-1.48l-2.72-1.54L21,12.67
		c-0.23-0.13-0.45-0.26-0.68-0.39l-0.67-0.41L14.32,8.6l5.26,3.39l0.66,0.42c0.22,0.14,0.45,0.27,0.67,0.4l1.34,0.8l2.69,1.61
		c0.89,0.55,1.81,1.03,2.73,1.54l2.74,1.51c0.45,0.26,0.93,0.48,1.39,0.72l1.4,0.7l1.4,0.7c0.47,0.23,0.93,0.47,1.41,0.68l2.86,1.29
		l0.72,0.32c0.24,0.1,0.49,0.19,0.73,0.29l1.46,0.58l1.46,0.58c0.49,0.18,0.99,0.35,1.48,0.52c0.99,0.33,1.98,0.71,2.99,0.97
		l1.52,0.44l0.38,0.11c0.13,0.04,0.26,0.06,0.38,0.09l0.77,0.18c0.51,0.12,1.03,0.24,1.54,0.35l1.56,0.26
		c0.52,0.1,1.05,0.14,1.58,0.2l0.79,0.08l0.8,0.03c0.27,0.01,0.53,0.03,0.8,0.02l0.81-0.02l0.2-0.01l0.2-0.02l0.15-0.01
		c-0.01,0.17-0.01,0.35-0.01,0.52c0-0.17,0.01-0.35,0.02-0.52l0.24-0.02c0.14-0.01,0.27-0.03,0.42-0.06l0.04-0.01
		c-0.05,0.93,0.06,1.85,0.29,2.76c-0.17-0.01-0.34-0.02-0.51-0.03c-0.04-0.07-0.07-0.14-0.1-0.22c-0.13-0.3-0.22-0.61-0.29-0.93
		c-0.06-0.32-0.09-0.65-0.1-0.98c0.01,0.66,0.08,1.31,0.25,1.96c0.01,0.05,0.03,0.1,0.04,0.15c-1.25-0.09-2.5-0.23-3.74-0.38
		c-4.73-0.57-9.43-1.49-14.05-2.67c-6.62-1.7-13.09-3.97-19.3-6.81C18.78,18.48,15.25,16.63,11.83,14.58z M61.65,28.75
		c-0.03,0.3-0.07,0.6-0.13,0.88c-0.06,0.29-0.15,0.57-0.27,0.8c-0.06,0.12-0.13,0.22-0.21,0.31c-0.01,0.01-0.02,0.01-0.03,0.02
		c0.07-0.18,0.24-0.51,0.17-0.69c-0.47-1.17-0.77-2.4-0.76-3.67c0-0.4,0.03-0.8,0.1-1.19c0.04-0.22,0.17-0.62,0-0.15
		c0.01-0.01,0.04-0.12,0.08-0.25c0.03,0,0.05,0,0.08,0c0.1,0.02,0.18,0.07,0.27,0.15c0.08,0.09,0.16,0.18,0.22,0.3
		c0.13,0.23,0.23,0.51,0.3,0.79c0.07,0.29,0.12,0.58,0.16,0.88c0.03,0.3,0.05,0.6,0.06,0.9C61.68,28.15,61.67,28.45,61.65,28.75z"/>
	<path class="st1" d="M9.77,10.51c-0.24,0.21-0.48,0.41-0.73,0.59c-0.25,0.19-0.51,0.37-0.77,0.52l0.38,0.53
		c0.26-0.22,0.49-0.45,0.71-0.69c0.22-0.24,0.44-0.48,0.64-0.73c0.21-0.25,0.4-0.51,0.58-0.78c0.18-0.26,0.35-0.54,0.5-0.82
		c-0.2,0.25-0.4,0.49-0.63,0.72C10.23,10.09,10.01,10.3,9.77,10.51z"/>
</g>
</svg>
