<svg xmlns="http://www.w3.org/2000/svg" viewBox="0 0 124.96 62.61"><defs><style>.cls-1{fill:#fff;}.cls-2{fill:#231f20;}</style></defs><title>Asset 1</title><g id="Layer_2" data-name="Layer 2"><g id="joint"><path class="cls-1" d="M15,27.1c.68.42,1.4.8,2,1.17,1.55,1,3.12,2,4.7,2.93-1.58-1-3.15-1.93-4.7-2.93C16.38,27.9,15.66,27.52,15,27.1Z"/><path class="cls-1" d="M29,35.42q4.52,2.51,9.15,4.78a226.77,226.77,0,0,0,22.52,9.58A225.77,225.77,0,0,1,38.1,40.2Q33.46,37.92,29,35.42Z"/><path class="cls-1" d="M12,22.72q.21.6.45,1.2c.14.32.27.7.44,1.07-.17-.37-.3-.75-.44-1.08S12.18,23.12,12,22.72Z"/><path class="cls-1" d="M123,61.69l-.22.2a1.34,1.34,0,0,1-.29.23,1.34,1.34,0,0,0,.29-.23l.22-.2.2-.23c.12-.14.23-.29.34-.44l-.34.45Z"/><path class="cls-1" d="M11.12,16.29c0-.08,0-.14,0-.21s0,.13,0,.21a11.89,11.89,0,0,0,0,1.19A11.89,11.89,0,0,1,11.12,16.29Z"/><path class="cls-1" d="M110.91,58.92c2.47.29,5,.57,7.45.75l-.09-.3a16.67,16.67,0,0,1-.49-3.9c0-.35,0-.69,0-1l-.3,0-.41,0h-.4l-1.61,0c-.53,0-1.06,0-1.59,0l-1.6-.07-1.57-.17c-1-.11-2.11-.2-3.14-.4l-3.11-.52c-1-.22-2-.47-3.07-.7l-1.53-.35c-.25-.06-.51-.11-.76-.18l-.76-.22-3-.87c-2-.53-4-1.27-6-1.93-1-.35-2-.67-3-1l-2.91-1.16-2.9-1.16-1.45-.58-1.42-.64L71.65,42c-1-.41-1.89-.88-2.81-1.35l-2.79-1.4-2.79-1.4c-.93-.47-1.87-.91-2.77-1.43l-5.46-3c-1.81-1-3.65-2-5.42-3.07l-5.35-3.2-2.67-1.6-1.33-.8L39,23.85,28.48,17.11l10.62,6.5,1.32.82,1.35.77,2.71,1.54,5.41,3.07c1.79,1.05,3.65,2,5.48,2.94l5.51,2.87c.91.5,1.86.92,2.79,1.37l2.81,1.33,2.81,1.33c.93.44,1.87.89,2.83,1.28l5.71,2.42,1.43.61c.48.19,1,.36,1.45.54l2.91,1.09,2.9,1.08c1,.34,2,.63,3,.95,2,.61,3.92,1.3,5.92,1.78l3,.79.74.19c.25.07.51.11.76.16l1.51.32c1,.2,2,.42,3,.61l3,.44c1,.18,2,.23,3,.32l1.52.13,1.52,0c.51,0,1,0,1.51,0l1.51-.08.37,0,.37,0,.73-.09c0-.2.07-.41.12-.62s0-.19.07-.29c-10,.47-20-2.22-29.33-5.81C70.7,38.44,54,27.65,38.4,16.11,33.84,12.74,29.4,9.24,25,5.73c-.9-.71-1.53-1.56-2.74-1.22A13.52,13.52,0,0,0,20,5.42a5.27,5.27,0,0,1,1.32-.06,3.49,3.49,0,0,1,1.46.44,3.3,3.3,0,0,1,1.11,1,4.44,4.44,0,0,1,.62,1.3,7.87,7.87,0,0,1,.29,2.71,7.44,7.44,0,0,1-.16,1.34,5.34,5.34,0,0,1-.42,1.3,4,4,0,0,1-1.87,1.9,5.06,5.06,0,0,1-2.59.43,4.84,4.84,0,0,0,2.49-.61,3.72,3.72,0,0,0,1.6-1.88,5,5,0,0,0,.29-1.22,7.55,7.55,0,0,0,.06-1.26,7.39,7.39,0,0,0-.45-2.45,3,3,0,0,0-1.44-1.69,3.27,3.27,0,0,0-2.19-.07,9.12,9.12,0,0,0-2.2,1,19.52,19.52,0,0,0-2,1.47L15.3,8.4,13.79,9.49l-.06,0A47.23,47.23,0,0,0,5,4.34L8,7.65l3.84,4.24a2.85,2.85,0,0,1,.53.62,7.45,7.45,0,0,1-.17,1.41,11,11,0,0,0,0,1.15,15.05,15.05,0,0,0,.26,2.41c.32,1.74.87,4.25,2,5.67.86,1,2.65,1.83,3.78,2.56q2.64,1.68,5.31,3.29a216.06,216.06,0,0,0,21,11.06A229.16,229.16,0,0,0,83,53.6,217.76,217.76,0,0,0,110.91,58.92ZM21.05,19.81c-.36.53-.75,1.05-1.16,1.55s-.83,1-1.28,1.45-.9.92-1.41,1.36l-.75-1.05c.5-.3,1-.67,1.52-1s1-.76,1.46-1.17.93-.85,1.37-1.3.85-.93,1.25-1.43C21.74,18.74,21.41,19.29,21.05,19.81Z"/><path class="cls-1" d="M122.27,51.84a6.31,6.31,0,0,0-.59-1.58,2.59,2.59,0,0,0-.44-.6,1.27,1.27,0,0,0-.54-.3h-.15c-.07.26-.14.48-.15.51.34-.94.07-.13,0,.3a14.36,14.36,0,0,0-.19,2.36,19.31,19.31,0,0,0,1.51,7.31c.14.36-.19,1-.33,1.37a.1.1,0,0,1,.05,0,2.92,2.92,0,0,0,.42-.62,6.92,6.92,0,0,0,.54-1.59,14.91,14.91,0,0,0,.25-1.76q.06-.9.06-1.8c0-.61,0-1.21-.12-1.8A14.21,14.21,0,0,0,122.27,51.84Z"/><path class="cls-1" d="M.43,1.09C.15,1.79-.09,2.6,0,2.73.68,3.44,1.32,4.15,2,4.87,1.32,4.15.68,3.44,0,2.73-.09,2.6.15,1.79.43,1.09Z"/><path class="cls-1" d="M122.2,48.66l.25.18Z"/><path class="cls-1" d="M118.26,52.14l.47-.08.35-.07.29-.06.07.24c.07-.33.14-.66.22-1l-1,.07-.18.4C118.37,51.81,118.31,52,118.26,52.14Z"/><path class="cls-1" d="M118.57,59.27c.06.14.13.29.2.43l1,.06a18.64,18.64,0,0,1-.58-5.5h-.07c-.28,0-.56.09-.82.11l-.49,0c0,.35,0,.69,0,1a11.51,11.51,0,0,0,.21,1.94A9.13,9.13,0,0,0,118.57,59.27Z"/><path class="cls-1" d="M123.54,60.94a.21.21,0,0,0,0,.06A.21.21,0,0,1,123.54,60.94Z"/><path class="cls-1" d="M89.89,42.72a84.1,84.1,0,0,0,21.3,5.55,84.1,84.1,0,0,1-21.3-5.55A180.2,180.2,0,0,1,59.5,27.1l-.63-.39.63.4A180.9,180.9,0,0,0,89.89,42.72Z"/><path class="cls-1" d="M120.9,62.6a1.38,1.38,0,0,1-.2,0A1.2,1.2,0,0,0,120.9,62.6Z"/><path class="cls-1" d="M111.27,48.28h0Z"/><path class="cls-1" d="M120,48.47a1.83,1.83,0,0,1,.54-.2A1.83,1.83,0,0,0,120,48.47Z"/><path class="cls-1" d="M125,55.35a11.28,11.28,0,0,0-.85-4.15,6.87,6.87,0,0,0-1.17-1.9l-.21-.22-.18-.16.18.17.2.21a6.46,6.46,0,0,1,1.18,1.9,11.08,11.08,0,0,1,.85,4.15,13.61,13.61,0,0,1-.15,2.11,10,10,0,0,1-.23,1.06,8,8,0,0,0,.23-1.06A13.61,13.61,0,0,0,125,55.35Z"/><path class="cls-1" d="M24.35,1.75A8.87,8.87,0,0,1,26.63,3.4a8.87,8.87,0,0,0-2.28-1.65,2,2,0,0,0-1.35,0A2,2,0,0,1,24.35,1.75Z"/><path class="cls-1" d="M39.5,13.45c-1.35-1-2.71-2-4-3-2.13-1.62-4.25-3.28-6.36-4.95,2.11,1.67,4.22,3.33,6.36,5Z"/><path class="cls-1" d="M18.13,4.52l-.91.58-.31.23.31-.23Z"/><path class="cls-1" d="M10.77,4.17c1,.59,2,1.21,3,1.89.48.35.65.66,1,.62-.39,0-.56-.27-1-.62-1-.68-1.94-1.3-2.94-1.89a43.42,43.42,0,0,0-5-2.57A26.78,26.78,0,0,0,1.66.14,27.49,27.49,0,0,1,5.74,1.6,43.29,43.29,0,0,1,10.77,4.17Z"/><path class="cls-2" d="M125,55.35a11.08,11.08,0,0,0-.85-4.15,6.46,6.46,0,0,0-1.18-1.9l-.2-.21-.18-.17,0,0,0,0-.25-.18-.21-.13a2.43,2.43,0,0,0-1.31-.29.51.51,0,0,0-.17,0,1.83,1.83,0,0,0-.54.2l-.06,0a51.93,51.93,0,0,1-8.55-.21h-.17a84.1,84.1,0,0,1-21.3-5.55A180.9,180.9,0,0,1,59.5,27.11l-.63-.4C52.24,22.55,45.79,18.1,39.5,13.45l-4-3c-2.14-1.62-4.25-3.28-6.36-4.95l-1.17-.92c-.41-.32-.84-.73-1.29-1.14a8.87,8.87,0,0,0-2.28-1.65,2,2,0,0,0-1.35,0,13.7,13.7,0,0,0-2.66,1.38c-.75.43-1.48.89-2.21,1.35l-.91.58-.31.23a8,8,0,0,1-2,1.31.72.72,0,0,1-.19,0c-.39,0-.56-.27-1-.62-1-.68-2-1.3-3-1.89a43.29,43.29,0,0,0-5-2.57A27.49,27.49,0,0,0,1.66.14L1,0C.93,0,.66.5.43,1.09S-.09,2.6,0,2.73C.68,3.44,1.32,4.15,2,4.87L5.88,9.19,9.77,13.5A10.51,10.51,0,0,1,11,14.81c.34.52.25.65.18,1.27,0,.07,0,.13,0,.21a11.89,11.89,0,0,0,0,1.19A17.07,17.07,0,0,0,12,22.72c.14.4.29.8.45,1.19s.27.71.44,1.08a4.47,4.47,0,0,0,.45.81A6.43,6.43,0,0,0,15,27.1c.68.42,1.4.8,2,1.17,1.55,1,3.12,2,4.7,2.93q3.62,2.19,7.3,4.22,4.52,2.51,9.15,4.78a225.77,225.77,0,0,0,22.52,9.58A224.51,224.51,0,0,0,107.21,61.3a123.78,123.78,0,0,0,13.46,1.26h0a1.38,1.38,0,0,0,.2,0h0a2.52,2.52,0,0,0,1.3-.34l.21-.15a1.34,1.34,0,0,0,.29-.23l.22-.2.2-.22.34-.45v0a.21.21,0,0,1,0-.06,7.51,7.51,0,0,0,.72-1.41,9.1,9.1,0,0,0,.32-1,10,10,0,0,0,.23-1.06A13.61,13.61,0,0,0,125,55.35Zm-5.3-4.17c-.08.33-.15.66-.22,1l-.07-.24-.29.06-.35.07-.47.08c0-.17.11-.33.17-.49l.18-.4ZM23.53,29q-2.67-1.61-5.31-3.29c-1.13-.73-2.92-1.52-3.78-2.56-1.17-1.42-1.72-3.93-2-5.67a15.05,15.05,0,0,1-.26-2.41,11,11,0,0,1,0-1.15,7.45,7.45,0,0,0,.17-1.41,2.85,2.85,0,0,0-.53-.62L8,7.65,5,4.34a47.23,47.23,0,0,1,8.77,5.19l.06,0L15.3,8.4l.54.71a19.52,19.52,0,0,1,2-1.47,9.12,9.12,0,0,1,2.2-1,3.27,3.27,0,0,1,2.19.07,3,3,0,0,1,1.44,1.69,7.39,7.39,0,0,1,.45,2.45,7.55,7.55,0,0,1-.06,1.26,5,5,0,0,1-.29,1.22,3.72,3.72,0,0,1-1.6,1.88,4.84,4.84,0,0,1-2.49.61,5.06,5.06,0,0,0,2.59-.43,4,4,0,0,0,1.87-1.9,5.34,5.34,0,0,0,.42-1.3,7.44,7.44,0,0,0,.16-1.34,7.87,7.87,0,0,0-.29-2.71,4.44,4.44,0,0,0-.62-1.3,3.3,3.3,0,0,0-1.11-1,3.49,3.49,0,0,0-1.46-.44A5.27,5.27,0,0,0,20,5.42a13.52,13.52,0,0,1,2.26-.91C23.43,4.17,24.06,5,25,5.73c4.44,3.51,8.88,7,13.44,10.38C54,27.65,70.7,38.44,88.88,45.45c9.28,3.59,19.3,6.28,29.33,5.81,0,.1,0,.2-.07.29s-.09.42-.12.62l-.73.09-.37,0-.37,0L115,52.4c-.5,0-1,0-1.51,0l-1.52,0-1.52-.13c-1-.09-2-.14-3-.32l-3-.44c-1-.19-2-.41-3-.61l-1.51-.32c-.25,0-.51-.09-.76-.16l-.74-.19-3-.79c-2-.48-4-1.17-5.92-1.78-1-.32-2-.61-3-.95l-2.9-1.08L80.71,44.5c-.48-.18-1-.35-1.45-.54l-1.43-.61-5.71-2.42c-1-.39-1.9-.84-2.83-1.28l-2.81-1.33L63.67,37c-.93-.45-1.88-.87-2.79-1.37l-5.51-2.87c-1.83-1-3.69-1.89-5.48-2.94l-5.41-3.07L41.77,25.2l-1.35-.77-1.32-.82-10.62-6.5L39,23.85l1.31.85,1.33.8,2.67,1.6,5.35,3.2c1.77,1.1,3.61,2.06,5.42,3.07l5.46,3c.9.52,1.84,1,2.77,1.43l2.79,1.4,2.79,1.4c.92.47,1.85.94,2.81,1.35l5.69,2.57,1.42.64,1.45.58,2.9,1.16L86,48.07c1,.36,2,.68,3,1,2,.66,3.93,1.4,6,1.93l3,.87.76.22c.25.07.51.12.76.18l1.53.35c1,.23,2,.48,3.07.7l3.11.52c1,.2,2.09.29,3.14.4l1.57.17,1.6.07c.53,0,1.06.06,1.59,0l1.61,0h.4l.41,0,.3,0c0,.35,0,.69,0,1,0-.35,0-.69,0-1l.49,0c.26,0,.54-.06.82-.11h.07a18.64,18.64,0,0,0,.58,5.5l-1-.06c-.07-.14-.14-.29-.2-.43a9.13,9.13,0,0,1-.58-1.86,11.51,11.51,0,0,1-.21-1.94,16.67,16.67,0,0,0,.49,3.9l.09.3c-2.49-.18-5-.46-7.45-.75A217.76,217.76,0,0,1,83,53.6a229.16,229.16,0,0,1-38.4-13.54A216.06,216.06,0,0,1,23.53,29Zm99.11,28.19a14.91,14.91,0,0,1-.25,1.76,6.92,6.92,0,0,1-.54,1.59,2.92,2.92,0,0,1-.42.62.1.1,0,0,0-.05,0c.14-.36.47-1,.33-1.37a19.31,19.31,0,0,1-1.51-7.31,14.36,14.36,0,0,1,.19-2.36c.08-.43.35-1.24,0-.3,0,0,.08-.25.15-.51h.15a1.27,1.27,0,0,1,.54.3,2.59,2.59,0,0,1,.44.6,6.31,6.31,0,0,1,.59,1.58,14.21,14.21,0,0,1,.31,1.75c.07.59.1,1.19.12,1.8S122.68,56.59,122.64,57.19Z"/><path class="cls-2" d="M19.43,20.91c-.47.41-1,.8-1.46,1.17s-1,.74-1.52,1l.75,1.05c.51-.44,1-.89,1.41-1.36s.88-.95,1.28-1.45.8-1,1.16-1.55.69-1.07,1-1.63c-.4.5-.81,1-1.25,1.43S19.9,20.5,19.43,20.91Z"/></g></g></svg>