<?xml version="1.0" encoding="utf-8"?>
<!-- Generator: Adobe Illustrator 23.0.4, SVG Export Plug-In . SVG Version: 6.00 Build 0)  -->
<svg version="1.1" id="Layer_1" xmlns="http://www.w3.org/2000/svg" xmlns:xlink="http://www.w3.org/1999/xlink" x="0px" y="0px"
	 viewBox="0 0 150 100" style="enable-background:new 0 0 150 100;" xml:space="preserve">
<g>
	<path d="M59.57,37.96c0.51,3.59,0.85,7.61,2.42,10.93c0.74,1.56,3.05,0.7,3.09-0.84c0.05-2.39,0.19-4.77,0.39-7.15
		c0.28-3.35,0.48-7.09,1.62-10.32c0.13,0.44,0.26,0.88,0.34,1.26c0.62,3.14,0.91,6.35,1.18,9.53c0.19,2.22,0.35,4.45,0.46,6.68
		c0.1,2.12,3.42,2.14,3.31,0c-0.3-5.98-0.62-12.17-1.95-18.02c-0.44-1.95-2.01-6.2-4.7-3.81c-1.13,1-1.63,2.8-2.01,4.2
		c-0.51,1.89-0.82,3.83-1.07,5.77c-0.3-2.21-0.57-4.43-0.8-6.65c-0.21-2.1-3.53-2.12-3.31,0C58.82,32.35,59.17,35.16,59.57,37.96z
		 M67.91,28.71C67.94,28.69,67.95,28.73,67.91,28.71L67.91,28.71z M66.57,28.74C66.32,28.64,66.49,28.31,66.57,28.74L66.57,28.74z"
		/>
	<path d="M101.68,24.87c-1.32-7.68-2.57-15.48-2.93-23.28c-0.07-1.42-2.27-1.42-2.21,0c0.37,7.99,1.66,16,3.01,23.86
		C99.79,26.86,101.92,26.27,101.68,24.87z"/>
	<path d="M107.65,23.91c-1.07-5.8-2.06-11.63-2.6-17.5c-0.15-1.59-0.32-3.21-0.26-4.81c0.06-1.42-2.15-1.42-2.21,0
		c-0.07,1.7,0.13,3.43,0.29,5.11c0.57,5.97,1.56,11.89,2.65,17.79C105.77,25.89,107.9,25.3,107.65,23.91z"/>
	<path d="M104.78,62.51c-0.77-2.73-5.04-1.57-4.26,1.17c0.73,2.57,1.49,5.14,2.04,7.76c0.17,0.79,0.26,1.23,0.29,1.79
		c0,0.04,0,0.09,0,0.13c-0.09,0-0.18-0.01-0.27-0.01c-0.09-0.01-0.46-0.05-0.6-0.07c-0.07-0.01-0.62-0.09-0.76-0.11
		c-0.85-0.12-1.7-0.24-2.55-0.34c-4.61-0.5-9.16,0.11-13.59,1.48c-3.6,1.12-7.18,2.43-10.63,4c3.73-4.81,7.39-9.69,11.85-13.84
		c5.72-5.33,12.09-10.03,18.48-14.52c2.05-1.44,0.82-4.55-1.7-4.04c-0.46,0.09-0.92,0.18-1.38,0.28c-0.96-2.68-1.87-5.38-2.76-8.08
		c1.41-0.28,2.8-0.62,4.15-1.03c2.03-0.63,1.17-3.83-0.88-3.2c-1.4,0.43-2.84,0.77-4.29,1.05c-3-9.42-5.7-18.95-8.44-28.43
		c-0.52-1.81-3.2-1.43-3.25,0.44c-0.3,9.75-0.61,19.5-0.91,29.26c-0.42,0.02-0.84,0.04-1.26,0.06c-0.14-2.43-0.38-4.87-0.87-7.23
		c-0.45-2.17-1.94-5.98-4.84-4.13c-1.53,0.98-2.34,3.05-2.9,4.67c-0.22,0.63-0.4,1.26-0.56,1.91c-0.16-1.78-0.31-3.57-0.45-5.35
		c-0.17-2.11-3.48-2.13-3.31,0c0.41,5.17,0.88,10.35,1.45,15.5c0.29,2.64,0.42,5.47,1.16,8.04c0.2,0.7,0.57,1.15,1,1.4
		c-4.72,0.76-9.45,1.48-14.19,2.17c0.37-0.35,0.55-0.88,0.3-1.53c-1.75-4.6-3.22-9.32-4.47-14.11c0.91-0.76,1.68-1.64,2.23-2.65
		c1.03-1.87-1.84-3.55-2.86-1.67c-0.2,0.37-0.18,0.3-0.32,0.46c0,0-0.01,0.01-0.01,0.01c-2.21-9.32-3.69-18.86-4.96-28.25
		c-0.18-1.3-0.35-2.6-0.49-3.91c-0.24-2.11-3.11-2.15-3.31,0c-0.74,7.93-1.48,15.86-2.23,23.79c-0.45,4.81-0.9,9.61-1.35,14.42
		c-0.02,0.09-0.02,0.18-0.03,0.27c-0.38,4.03-0.75,8.06-1.13,12.08c-0.2,2.12,3.12,2.11,3.31,0c0.33-3.47,0.65-6.95,0.98-10.42
		c2.32-0.43,4.99-1.14,7.33-2.3c1.15,4.45,2.47,8.87,4.11,13.17c0.18,0.47,0.49,0.77,0.86,0.95c-2.72,0.39-5.44,0.77-8.17,1.14
		c-1.23,0.17-1.76,1.68-1.54,2.72c0.82,3.92,3.87,7.29,7.26,9.29c2.45,1.45,4.68-2.37,2.23-3.82c-1.73-1.03-3.32-2.5-4.32-4.27
		c13.5-1.85,26.98-3.96,40.38-6.48c-3.73,2.82-7.38,5.77-10.8,8.92c-8.27,7.61-13.78,17.72-21.99,25.37c-2,2.04,1.05,5.06,3.12,3.12
		c1.54-1.56,3.08-2.51,5.13-3.76c5.54-3.39,11.7-5.88,17.95-7.64c3.95-1.11,8.37-1.26,12.1-0.74c2.32,0.32,5.5,1.13,6.93-1.39
		c0.83-1.46,0.51-3.32,0.23-4.88C106.47,68.22,105.59,65.35,104.78,62.51z M46.5,38.3c0.7-7.46,1.4-14.93,2.1-22.39
		c1.1,6.75,2.44,13.47,4.05,20.1C50.77,37.13,48.65,37.83,46.5,38.3z M89.2,17.51c1.74,6,3.51,12,5.41,17.96
		c-1.99,0.26-3.99,0.43-5.99,0.56C88.82,29.85,89.01,23.68,89.2,17.51z M80.21,27.64c0.01,0.01-0.02,0.01-0.07,0.02
		C80.17,27.6,80.2,27.63,80.21,27.64z M79.25,27.63C79.16,27.58,79.17,27.53,79.25,27.63L79.25,27.63z M76.91,48.92
		C76.97,49.07,76.92,49.12,76.91,48.92L76.91,48.92z M73.91,49.37C73.91,49.53,73.89,49.49,73.91,49.37L73.91,49.37z M77.22,49.2
		c0.17-6.11-0.64-12.25,1.23-18.2c0.22-0.71,0.49-1.41,0.84-2.07c0.09-0.17,0.21-0.33,0.33-0.48c0.54,1.49,0.73,3.67,0.89,5.3
		c0.41,4.32,0.85,9.02,0.45,13.37c0,0.03-0.01,0.07-0.01,0.1c0,0.01,0,0.02,0,0.03c0.09,2.16,3.11,2.1,3.31,0
		c0.21-2.24,0.01-4.61-0.06-6.85c-0.01-0.27-0.02-0.53-0.03-0.8c0.34-0.02,0.68-0.03,1.02-0.05c-0.01,0.24-0.01,0.47-0.02,0.71
		c-0.05,1.59-0.1,3.17-0.15,4.76c-0.07,2.13,3.25,2.13,3.31,0c0.06-1.88,0.12-3.77,0.18-5.65c2.37-0.15,4.76-0.35,7.12-0.68
		c0.9,2.74,1.82,5.47,2.79,8.18c-7.24,1.42-14.51,2.73-21.8,3.92C76.97,50.41,77.2,49.89,77.22,49.2z M102.86,73.98
		C102.86,73.98,102.86,73.98,102.86,73.98c0,0.01,0,0.03,0,0.05C102.86,74.01,102.86,74,102.86,73.98z"/>
	<path d="M95.51,84.39c-9.9,1.05-19.94,3.23-28.77,8c-2.9,1.57-6.15,3.49-8.31,6.07c-0.91,1.08,0.65,2.65,1.56,1.56
		c1.98-2.37,4.91-4.11,7.57-5.57c8.53-4.68,18.33-6.83,27.94-7.85C96.91,86.45,96.92,84.24,95.51,84.39z"/>
	<path d="M88.51,91.3c-5.76-0.89-12.12,0.67-16.53,4.63c-1.06,0.95,0.51,2.51,1.56,1.56c3.77-3.39,9.45-4.83,14.38-4.07
		C89.31,93.65,89.91,91.52,88.51,91.3z"/>
</g>
</svg>
