<?xml version="1.0" encoding="utf-8"?>
<!-- Generator: Adobe Illustrator 23.0.4, SVG Export Plug-In . SVG Version: 6.00 Build 0)  -->
<svg version="1.1" id="Layer_1" xmlns="http://www.w3.org/2000/svg" xmlns:xlink="http://www.w3.org/1999/xlink" x="0px" y="0px"
	 viewBox="0 0 150 100" style="enable-background:new 0 0 150 100;" xml:space="preserve">
<style type="text/css">
	.st0{fill:#FFFFFF;}
</style>
<g>
	<path class="st0" d="M130.39,77.55c-3.13-5.72-7.38-10.98-12.09-15.49c0.07,0,0.13,0.01,0.2,0.01c1.4,0.01,2.97-1.3,2.81-2.81
		c-1.28-12.21-1.91-25.25,0.39-37.35c0.67-3.54-4.75-5.06-5.43-1.5c-1.29,6.82-1.75,13.88-1.69,20.94c-1.37-1.8-2.95-3.41-4.8-4.7
		c-5.3-3.71-13.47-3.75-19.3-1.32c-2.97,1.24-6.18,4.35-5.21,7.93c0.3,1.11,1.32,2.02,2.1,2.83c2.21,2.28,4.62,4.35,7.14,6.28
		c6.07,4.67,13.19,7.53,18.84,12.76c5.08,4.69,9.66,10.23,12.79,16.42c1.07,2.11,2.07,4.47,2.11,6.87c0.01,0.84-0.13,1.41-0.48,1.94
		c-0.04,0.07-0.09,0.13-0.36,0.44c-0.15,0.17-0.4,0.36-0.53,0.54c-0.6-0.7-2.29-1.72-2.79-2.15c-0.99-0.85-1.96-1.72-2.92-2.6
		c-1.89-1.73-3.74-3.51-5.54-5.32c-3.43-3.46-6.72-7.05-9.89-10.75c-3.02-3.52-5.99-7.12-8.7-10.89c-1.96-2.72-6.29-0.56-5.12,2.33
		c-0.18,0.03-0.37,0.07-0.55,0.11c-2.46-5.78-5.43-11.38-8.88-16.53c-1.51-2.25-5.24-1.49-5.24,1.42c0,5.4,0,10.8,0,16.19
		c-1.18,1.05-2.53,2.32-3.81,3.72c-0.66-9.35-2.08-18.76-4.77-27.6c-1.05-3.46-6.48-1.98-5.43,1.5c2.42,7.98,3.76,16.39,4.45,24.8
		c-1-2.5-2.03-5-3.1-7.47c-1.36-3.16-2.76-6.33-4.44-9.33c-1.03-1.84-2.26-4.23-4.39-4.96c-0.95-0.33-1.7,0.03-2.14,0.65
		c-0.32,0.33-0.53,0.79-0.53,1.39c0,5.92,0,11.85,0,17.77c-0.53-1.22-1.08-2.44-1.69-3.63c-2.96-5.77-7.16-10.82-11.67-15.5
		c0.88,0.05,1.77,0.11,2.65,0.2c0.45,0.05,0.9,0.09,1.35,0.18c0.8,0.15,1.47,0.74,0.22-0.24c2.32,1.81,6.28-0.47,4.42-3.41
		C41.43,30.18,37.05,16.33,37.65,3.3c0.08-1.71-1.13-2.61-2.45-2.7c-1.3-0.26-2.71,0.28-3.08,1.96
		c-3.34,15.06-5.05,30.58-6.75,45.88c-0.16,1.48-0.32,2.95-0.47,4.43c-1.56-6.44-3.11-12.88-4.67-19.32
		c-0.64-2.64-4.71-1.52-4.07,1.12c2.49,10.31,4.99,20.63,7.48,30.94c-0.39,4.26-0.77,8.53-1.11,12.79
		c-0.13,1.56,1.39,2.76,2.81,2.81c8.71,0.36,17.48,1.05,26.2,1.07c4.25,0.01,6.94-3.15,6.24-7.42c-0.11-0.66-0.28-1.3-0.49-1.93
		c0.01-0.08,0.03-0.16,0.03-0.25c0-1.16,0-2.33,0-3.49c0.15-0.01,0.3-0.03,0.47-0.07c2.02-0.51,3.88-1.85,5.41-3.23
		c0.03-0.03,0.05-0.06,0.08-0.09c1,2.47,1.96,4.95,2.89,7.44c0.36,0.98,1.2,1.41,2.04,1.43c0.01,0.44,0.03,0.88,0.04,1.31
		c-0.19,1.16-0.16,2.33,0.15,3.49c0.83,3.04,5.57,2.46,5.53-0.75c-0.01-0.5-0.02-0.99-0.03-1.49c0.12-0.53,0.26-1.06,0.46-1.57
		c0.67-1.68,1.7-3.21,2.89-4.62c0,1.36,0,2.73,0,4.09c0,3.62,5.63,3.63,5.63,0c0-1.01,0-2.02,0-3.03c0.18-0.1,0.35-0.21,0.52-0.35
		c0,0,0,0,0,0c0.11-0.08,0.46-0.34,0.53-0.39c0.81-0.55,1.63-1.08,2.49-1.56c0.54-0.3,1.1-0.58,1.66-0.83
		c0.74,1.99,1.42,4,2.03,6.01c1.05,3.46,6.48,1.98,5.43-1.5c-0.63-2.06-1.32-4.11-2.07-6.15c0.38-0.06,0.76-0.1,1.14-0.13
		c0.13-0.01,0.26-0.03,0.38-0.05c3.79,6.64,7,13.65,8.77,21.1c0.7,2.94,1.32,5.52,1.02,8.6c-0.35,3.6,5.28,3.58,5.63,0
		c0.33-3.31-0.46-6.91-1.22-10.09c-0.46-1.93-1.02-3.84-1.65-5.73c2.85,3.02,5.79,5.94,8.81,8.74c1.62,1.51,3.28,2.98,4.97,4.4
		c1.57,1.32,3.21,3.14,5.42,3.11c2.53-0.03,4.98-2.34,6.13-4.48C135.44,87.99,132.75,81.88,130.39,77.55z M115.78,59.75
		c-0.01-0.01-0.02-0.02-0.04-0.03c-0.01-0.11-0.03-0.26-0.06-0.47C115.7,59.42,115.73,59.59,115.78,59.75z M90.77,42.28
		c-0.01-0.04-0.02-0.08-0.04-0.14c0-0.01,0-0.01,0-0.02C90.75,42.18,90.76,42.23,90.77,42.28z M90.69,42.01
		c0-0.01,0.01-0.01,0.01-0.02c0,0,0,0,0,0C90.7,42,90.7,42.01,90.69,42.01C90.69,42.01,90.69,42.01,90.69,42.01z M109.68,55.24
		c-3.69-2.22-7.48-4.12-10.96-6.69c-2.54-1.87-4.94-3.96-7.14-6.21c-0.19-0.2-0.4-0.47-0.62-0.73c0.02-0.02,0.03-0.04,0.04-0.06
		c-0.06,0.07,0.22-0.3,0.49-0.46c2.21-1.4,5.55-1.63,8.31-1.65c6.52-0.03,10.45,4.42,12.97,10.04c0.99,2.2,1.71,4.53,2.28,6.88
		c0.2,0.84,0.39,1.69,0.54,2.54c0.03,0.17,0.09,0.55,0.13,0.8C113.83,58.07,111.82,56.53,109.68,55.24z M40.55,38.87
		c-0.32-0.01-0.63-0.03-0.93-0.05c-2.31-0.14-4.63-0.22-6.95-0.24c-0.21,0-0.42,0.03-0.61,0.07c0.66-5.33,1.39-10.65,2.2-15.95
		C35.74,28.33,37.89,33.81,40.55,38.87z M51.99,76.67c0.08,0,0.16-0.01,0.28-0.01C52.17,76.66,52.08,76.67,51.99,76.67z
		 M52.38,76.56c-0.01-0.03,0.04,0.09-0.02,0.04c0.04,0.03-0.28,0.06-0.48,0.07c-0.26-0.01-0.52-0.02-0.78-0.03
		c-4.47-0.17-8.93-0.36-13.4-0.55c-3.11-0.13-6.22-0.25-9.32-0.38c0.86-10.53,1.83-21.09,3.03-31.62
		c5.17,5.01,10.29,10.29,13.94,16.52c2.12,3.62,3.51,7.58,5.35,11.33c0.66,1.35,1.28,2.63,1.6,4.11
		C52.38,76.44,52.46,76.74,52.38,76.56z M60.2,62.91c-0.78,0.7-1.79,1.49-2.89,1.92c0-4.14,0-8.29,0-12.43
		c1.47,2.84,2.76,5.76,4.01,8.7c0.17,0.4,0.34,0.81,0.51,1.22C61.25,62.29,60.66,62.49,60.2,62.91z M73.8,77.98
		C73.8,77.98,73.81,77.98,73.8,77.98c0.01,0,0-0.01,0-0.02c0.01-0.05,0.01-0.1,0.02-0.16C73.99,77.88,73.74,78.51,73.8,77.98z
		 M82.86,65.34c0-0.05,0-0.1,0-0.15c0.13-0.44,0.12-0.88,0-1.3c0-2.22,0-4.43,0-6.65c1.11,2.13,2.15,4.31,3.1,6.52
		C84.9,64.22,83.86,64.74,82.86,65.34z"/>
	<path class="st0" d="M85.67,81.86C74,82.98,62.1,84.43,50.89,88.03c-4.14,1.33-8.8,2.94-12.07,5.96c-0.44,0.41-0.94,0.88-1.21,1.42
		c-0.82,1.61,1.61,3.04,2.43,1.42c0.04-0.08,0.1-0.15,0.14-0.22c-0.22,0.38,0.18-0.21,0.41-0.43c0.87-0.83,1.79-1.42,2.99-2.1
		c5.88-3.31,12.81-4.88,19.36-6.21c7.5-1.52,15.11-2.47,22.72-3.2C87.46,84.5,87.48,81.69,85.67,81.86z"/>
	<path class="st0" d="M72.62,91.04c-3.99,0.63-8.93,1.36-12.16,4.08c-0.82,0.69-1.86,1.84-1.74,3.03c0.19,1.78,3,1.8,2.81,0
		c0-0.01,0-0.01,0-0.01c0.3-0.42,0.57-0.77,1.06-1.13c2.96-2.16,7.27-2.7,10.77-3.25C75.16,93.47,74.4,90.76,72.62,91.04z"/>
</g>
</svg>
